<?xml version="1.0" encoding="UTF-8" standalone="no"?>
<svg
   width="240mm"
   height="240mm"
   viewBox="0 0 240 240"
   version="1.1"
   id="svg19591"
   inkscape:version="1.3.2 (091e20e, 2023-11-25, custom)"
   sodipodi:docname="logo.svg"
   inkscape:export-filename="D:\Users\mrgal\Documents\VectorScape\fujima\fujima.png"
   inkscape:export-xdpi="85.513329"
   inkscape:export-ydpi="85.513329"
   xmlns:inkscape="http://www.inkscape.org/namespaces/inkscape"
   xmlns:sodipodi="http://sodipodi.sourceforge.net/DTD/sodipodi-0.dtd"
   xmlns:xlink="http://www.w3.org/1999/xlink"
   xmlns="http://www.w3.org/2000/svg"
   xmlns:svg="http://www.w3.org/2000/svg"
   xmlns:rdf="http://www.w3.org/1999/02/22-rdf-syntax-ns#"
   xmlns:cc="http://creativecommons.org/ns#"
   xmlns:dc="http://purl.org/dc/elements/1.1/">
  <defs
     id="defs19585">
    <inkscape:path-effect
       effect="powerstroke"
       id="path-effect2276"
       is_visible="true"
       lpeversion="1"
       offset_points="8.9951978e-05,-0.81125537"
       sort_points="true"
       interpolator_type="CubicBezierJohan"
       interpolator_beta="0.2"
       start_linecap_type="zerowidth"
       linejoin_type="extrp_arc"
       miter_limit="4"
       scale_width="1"
       end_linecap_type="zerowidth"
       not_jump="false"
       message="&lt;b&gt;Ctrl + click&lt;/b&gt; on existing node and move it" />
    <inkscape:path-effect
       effect="powerstroke"
       id="path-effect2252"
       is_visible="true"
       lpeversion="1"
       offset_points="0,0.57087497"
       sort_points="true"
       interpolator_type="CubicBezierJohan"
       interpolator_beta="0.2"
       start_linecap_type="zerowidth"
       linejoin_type="extrp_arc"
       miter_limit="4"
       scale_width="1"
       end_linecap_type="zerowidth"
       not_jump="false"
       message="&lt;b&gt;Ctrl + click&lt;/b&gt; on existing node and move it" />
    <inkscape:path-effect
       effect="powerstroke"
       id="path-effect2228"
       is_visible="true"
       lpeversion="1"
       offset_points="0,0.37328474"
       sort_points="true"
       interpolator_type="CubicBezierJohan"
       interpolator_beta="0.2"
       start_linecap_type="zerowidth"
       linejoin_type="extrp_arc"
       miter_limit="4"
       scale_width="1"
       end_linecap_type="zerowidth"
       not_jump="false"
       message="&lt;b&gt;Ctrl + click&lt;/b&gt; on existing node and move it" />
    <inkscape:path-effect
       effect="powerstroke"
       id="path-effect2126"
       is_visible="true"
       lpeversion="1"
       offset_points="0,0.6547011"
       sort_points="true"
       interpolator_type="CubicBezierJohan"
       interpolator_beta="0.2"
       start_linecap_type="zerowidth"
       linejoin_type="extrp_arc"
       miter_limit="4"
       scale_width="1"
       end_linecap_type="zerowidth"
       not_jump="false"
       message="&lt;b&gt;Ctrl + click&lt;/b&gt; on existing node and move it" />
    <inkscape:path-effect
       effect="powerstroke"
       id="path-effect2098"
       is_visible="true"
       lpeversion="1"
       offset_points="0,0.59515752"
       sort_points="true"
       interpolator_type="CubicBezierJohan"
       interpolator_beta="0.2"
       start_linecap_type="zerowidth"
       linejoin_type="extrp_arc"
       miter_limit="4"
       scale_width="1"
       end_linecap_type="zerowidth"
       not_jump="false"
       message="&lt;b&gt;Ctrl + click&lt;/b&gt; on existing node and move it" />
    <inkscape:path-effect
       effect="powerstroke"
       id="path-effect2030"
       is_visible="true"
       lpeversion="1"
       offset_points="0,1.0231415"
       sort_points="true"
       interpolator_type="CubicBezierJohan"
       interpolator_beta="0.2"
       start_linecap_type="zerowidth"
       linejoin_type="extrp_arc"
       miter_limit="4"
       scale_width="1"
       end_linecap_type="zerowidth"
       not_jump="false"
       message="&lt;b&gt;Ctrl + click&lt;/b&gt; on existing node and move it" />
    <inkscape:path-effect
       effect="powerstroke"
       id="path-effect1982"
       is_visible="true"
       lpeversion="1"
       offset_points="0,0.37328474"
       sort_points="true"
       interpolator_type="CubicBezierJohan"
       interpolator_beta="0.2"
       start_linecap_type="zerowidth"
       linejoin_type="extrp_arc"
       miter_limit="4"
       scale_width="1"
       end_linecap_type="zerowidth"
       not_jump="false"
       message="&lt;b&gt;Ctrl + click&lt;/b&gt; on existing node and move it" />
    <inkscape:path-effect
       effect="powerstroke"
       id="path-effect1956"
       is_visible="true"
       lpeversion="1"
       offset_points="0,0.37328474"
       sort_points="true"
       interpolator_type="CubicBezierJohan"
       interpolator_beta="0.2"
       start_linecap_type="zerowidth"
       linejoin_type="extrp_arc"
       miter_limit="4"
       scale_width="1"
       end_linecap_type="zerowidth"
       not_jump="false"
       message="&lt;b&gt;Ctrl + click&lt;/b&gt; on existing node and move it" />
    <inkscape:path-effect
       effect="powerstroke"
       id="path-effect1952"
       is_visible="true"
       lpeversion="1"
       offset_points="0,2.00415"
       sort_points="true"
       interpolator_type="CubicBezierJohan"
       interpolator_beta="0.2"
       start_linecap_type="zerowidth"
       linejoin_type="extrp_arc"
       miter_limit="4"
       scale_width="1"
       end_linecap_type="zerowidth"
       not_jump="false"
       message="&lt;b&gt;Ctrl + click&lt;/b&gt; on existing node and move it" />
    <inkscape:path-effect
       effect="powerstroke"
       id="path-effect1948"
       is_visible="true"
       lpeversion="1"
       offset_points="0,2.00415"
       sort_points="true"
       interpolator_type="CubicBezierJohan"
       interpolator_beta="0.2"
       start_linecap_type="zerowidth"
       linejoin_type="extrp_arc"
       miter_limit="4"
       scale_width="1"
       end_linecap_type="zerowidth"
       not_jump="false"
       message="&lt;b&gt;Ctrl + click&lt;/b&gt; on existing node and move it" />
    <inkscape:path-effect
       effect="powerstroke"
       id="path-effect1944"
       is_visible="true"
       lpeversion="1"
       offset_points="0,2.00415"
       sort_points="true"
       interpolator_type="CubicBezierJohan"
       interpolator_beta="0.2"
       start_linecap_type="zerowidth"
       linejoin_type="extrp_arc"
       miter_limit="4"
       scale_width="1"
       end_linecap_type="zerowidth"
       not_jump="false"
       message="&lt;b&gt;Ctrl + click&lt;/b&gt; on existing node and move it" />
    <inkscape:path-effect
       effect="powerstroke"
       id="path-effect1734"
       is_visible="true"
       lpeversion="1"
       offset_points="0,-1.6110718"
       sort_points="true"
       interpolator_type="CubicBezierJohan"
       interpolator_beta="0.2"
       start_linecap_type="zerowidth"
       linejoin_type="extrp_arc"
       miter_limit="4"
       scale_width="1"
       end_linecap_type="zerowidth"
       not_jump="false"
       message="&lt;b&gt;Ctrl + click&lt;/b&gt; on existing node and move it" />
    <inkscape:path-effect
       effect="powerstroke"
       id="path-effect1732"
       is_visible="true"
       lpeversion="1"
       offset_points="0,-1.4892499"
       sort_points="true"
       interpolator_type="CubicBezierJohan"
       interpolator_beta="0.2"
       start_linecap_type="zerowidth"
       linejoin_type="extrp_arc"
       miter_limit="4"
       scale_width="1"
       end_linecap_type="zerowidth"
       not_jump="false"
       message="&lt;b&gt;Ctrl + click&lt;/b&gt; on existing node and move it" />
    <inkscape:path-effect
       effect="powerstroke"
       id="path-effect1730"
       is_visible="true"
       lpeversion="1"
       offset_points="0,-1.1280283"
       sort_points="true"
       interpolator_type="CubicBezierJohan"
       interpolator_beta="0.2"
       start_linecap_type="zerowidth"
       linejoin_type="extrp_arc"
       miter_limit="4"
       scale_width="1"
       end_linecap_type="zerowidth"
       not_jump="false"
       message="&lt;b&gt;Ctrl + click&lt;/b&gt; on existing node and move it" />
    <inkscape:path-effect
       effect="powerstroke"
       id="path-effect1728"
       is_visible="true"
       lpeversion="1"
       offset_points="0.0080845055,2.0041458"
       sort_points="true"
       interpolator_type="CubicBezierJohan"
       interpolator_beta="0.2"
       start_linecap_type="zerowidth"
       linejoin_type="extrp_arc"
       miter_limit="4"
       scale_width="1"
       end_linecap_type="zerowidth"
       not_jump="false"
       message="&lt;b&gt;Ctrl + click&lt;/b&gt; on existing node and move it" />
    <inkscape:path-effect
       effect="powerstroke"
       id="path-effect1606"
       is_visible="true"
       lpeversion="1"
       offset_points="0,-1.6110718"
       sort_points="true"
       interpolator_type="CubicBezierJohan"
       interpolator_beta="0.2"
       start_linecap_type="zerowidth"
       linejoin_type="extrp_arc"
       miter_limit="4"
       scale_width="1"
       end_linecap_type="zerowidth"
       not_jump="false"
       message="&lt;b&gt;Ctrl + click&lt;/b&gt; on existing node and move it" />
    <inkscape:path-effect
       effect="powerstroke"
       id="path-effect1582"
       is_visible="true"
       lpeversion="1"
       offset_points="0,-1.4892499"
       sort_points="true"
       interpolator_type="CubicBezierJohan"
       interpolator_beta="0.2"
       start_linecap_type="zerowidth"
       linejoin_type="extrp_arc"
       miter_limit="4"
       scale_width="1"
       end_linecap_type="zerowidth"
       not_jump="false"
       message="&lt;b&gt;Ctrl + click&lt;/b&gt; on existing node and move it" />
    <inkscape:path-effect
       effect="powerstroke"
       id="path-effect1558"
       is_visible="true"
       lpeversion="1"
       offset_points="0,-1.1280283"
       sort_points="true"
       interpolator_type="CubicBezierJohan"
       interpolator_beta="0.2"
       start_linecap_type="zerowidth"
       linejoin_type="extrp_arc"
       miter_limit="4"
       scale_width="1"
       end_linecap_type="zerowidth"
       not_jump="false"
       message="&lt;b&gt;Ctrl + click&lt;/b&gt; on existing node and move it" />
    <inkscape:path-effect
       effect="powerstroke"
       id="path-effect1497"
       is_visible="true"
       lpeversion="1"
       offset_points="0,3.6737285"
       sort_points="true"
       interpolator_type="CubicBezierJohan"
       interpolator_beta="0.2"
       start_linecap_type="zerowidth"
       linejoin_type="extrp_arc"
       miter_limit="4"
       scale_width="1"
       end_linecap_type="zerowidth"
       not_jump="false"
       message="&lt;b&gt;Ctrl + click&lt;/b&gt; on existing node and move it" />
    <inkscape:path-effect
       effect="powerstroke"
       id="path-effect1493"
       is_visible="true"
       lpeversion="1"
       offset_points="0,1"
       sort_points="true"
       interpolator_type="CubicBezierJohan"
       interpolator_beta="0.2"
       start_linecap_type="zerowidth"
       linejoin_type="extrp_arc"
       miter_limit="4"
       scale_width="1"
       end_linecap_type="zerowidth"
       not_jump="false"
       message="&lt;b&gt;Ctrl + click&lt;/b&gt; on existing node and move it" />
    <inkscape:path-effect
       effect="powerstroke"
       id="path-effect1489"
       is_visible="true"
       lpeversion="1"
       offset_points="0,1"
       sort_points="true"
       interpolator_type="CubicBezierJohan"
       interpolator_beta="0.2"
       start_linecap_type="zerowidth"
       linejoin_type="extrp_arc"
       miter_limit="4"
       scale_width="1"
       end_linecap_type="zerowidth"
       not_jump="false"
       message="&lt;b&gt;Ctrl + click&lt;/b&gt; on existing node and move it" />
    <inkscape:path-effect
       effect="powerstroke"
       id="path-effect1956-9"
       is_visible="true"
       lpeversion="1"
       offset_points="0,0.37328474"
       sort_points="true"
       interpolator_type="CubicBezierJohan"
       interpolator_beta="0.2"
       start_linecap_type="zerowidth"
       linejoin_type="extrp_arc"
       miter_limit="4"
       scale_width="1"
       end_linecap_type="zerowidth"
       not_jump="false"
       message="&lt;b&gt;Ctrl + click&lt;/b&gt; on existing node and move it" />
    <inkscape:path-effect
       effect="powerstroke"
       id="path-effect1956-7"
       is_visible="true"
       lpeversion="1"
       offset_points="0,0.37328474"
       sort_points="true"
       interpolator_type="CubicBezierJohan"
       interpolator_beta="0.2"
       start_linecap_type="zerowidth"
       linejoin_type="extrp_arc"
       miter_limit="4"
       scale_width="1"
       end_linecap_type="zerowidth"
       not_jump="false"
       message="&lt;b&gt;Ctrl + click&lt;/b&gt; on existing node and move it" />
    <inkscape:path-effect
       effect="powerstroke"
       id="path-effect1956-1"
       is_visible="true"
       lpeversion="1"
       offset_points="0,0.37328474"
       sort_points="true"
       interpolator_type="CubicBezierJohan"
       interpolator_beta="0.2"
       start_linecap_type="zerowidth"
       linejoin_type="extrp_arc"
       miter_limit="4"
       scale_width="1"
       end_linecap_type="zerowidth"
       not_jump="false"
       message="&lt;b&gt;Ctrl + click&lt;/b&gt; on existing node and move it" />
    <inkscape:path-effect
       effect="powerstroke"
       id="path-effect1497-3"
       is_visible="true"
       lpeversion="1"
       offset_points="0,3.6737285"
       sort_points="true"
       interpolator_type="CubicBezierJohan"
       interpolator_beta="0.2"
       start_linecap_type="zerowidth"
       linejoin_type="extrp_arc"
       miter_limit="4"
       scale_width="1"
       end_linecap_type="zerowidth"
       not_jump="false"
       message="&lt;b&gt;Ctrl + click&lt;/b&gt; on existing node and move it" />
    <inkscape:path-effect
       effect="powerstroke"
       id="path-effect1558-6"
       is_visible="true"
       lpeversion="1"
       offset_points="0,-1.1280283"
       sort_points="true"
       interpolator_type="CubicBezierJohan"
       interpolator_beta="0.2"
       start_linecap_type="zerowidth"
       linejoin_type="extrp_arc"
       miter_limit="4"
       scale_width="1"
       end_linecap_type="zerowidth"
       not_jump="false"
       message="&lt;b&gt;Ctrl + click&lt;/b&gt; on existing node and move it" />
    <inkscape:path-effect
       effect="powerstroke"
       id="path-effect1582-3"
       is_visible="true"
       lpeversion="1"
       offset_points="0,-1.4892499"
       sort_points="true"
       interpolator_type="CubicBezierJohan"
       interpolator_beta="0.2"
       start_linecap_type="zerowidth"
       linejoin_type="extrp_arc"
       miter_limit="4"
       scale_width="1"
       end_linecap_type="zerowidth"
       not_jump="false"
       message="&lt;b&gt;Ctrl + click&lt;/b&gt; on existing node and move it" />
    <inkscape:path-effect
       effect="powerstroke"
       id="path-effect1606-4"
       is_visible="true"
       lpeversion="1"
       offset_points="0,-1.6110718"
       sort_points="true"
       interpolator_type="CubicBezierJohan"
       interpolator_beta="0.2"
       start_linecap_type="zerowidth"
       linejoin_type="extrp_arc"
       miter_limit="4"
       scale_width="1"
       end_linecap_type="zerowidth"
       not_jump="false"
       message="&lt;b&gt;Ctrl + click&lt;/b&gt; on existing node and move it" />
    <inkscape:path-effect
       effect="powerstroke"
       id="path-effect1728-9"
       is_visible="true"
       lpeversion="1"
       offset_points="0.0080845055,2.0041458"
       sort_points="true"
       interpolator_type="CubicBezierJohan"
       interpolator_beta="0.2"
       start_linecap_type="zerowidth"
       linejoin_type="extrp_arc"
       miter_limit="4"
       scale_width="1"
       end_linecap_type="zerowidth"
       not_jump="false"
       message="&lt;b&gt;Ctrl + click&lt;/b&gt; on existing node and move it" />
    <inkscape:path-effect
       effect="powerstroke"
       id="path-effect1730-8"
       is_visible="true"
       lpeversion="1"
       offset_points="0,-1.1280283"
       sort_points="true"
       interpolator_type="CubicBezierJohan"
       interpolator_beta="0.2"
       start_linecap_type="zerowidth"
       linejoin_type="extrp_arc"
       miter_limit="4"
       scale_width="1"
       end_linecap_type="zerowidth"
       not_jump="false"
       message="&lt;b&gt;Ctrl + click&lt;/b&gt; on existing node and move it" />
    <inkscape:path-effect
       effect="powerstroke"
       id="path-effect1732-6"
       is_visible="true"
       lpeversion="1"
       offset_points="0,-1.4892499"
       sort_points="true"
       interpolator_type="CubicBezierJohan"
       interpolator_beta="0.2"
       start_linecap_type="zerowidth"
       linejoin_type="extrp_arc"
       miter_limit="4"
       scale_width="1"
       end_linecap_type="zerowidth"
       not_jump="false"
       message="&lt;b&gt;Ctrl + click&lt;/b&gt; on existing node and move it" />
    <inkscape:path-effect
       effect="powerstroke"
       id="path-effect2030-6"
       is_visible="true"
       lpeversion="1"
       offset_points="0,1.0231415"
       sort_points="true"
       interpolator_type="CubicBezierJohan"
       interpolator_beta="0.2"
       start_linecap_type="zerowidth"
       linejoin_type="extrp_arc"
       miter_limit="4"
       scale_width="1"
       end_linecap_type="zerowidth"
       not_jump="false"
       message="&lt;b&gt;Ctrl + click&lt;/b&gt; on existing node and move it" />
    <inkscape:path-effect
       effect="powerstroke"
       id="path-effect2098-5"
       is_visible="true"
       lpeversion="1"
       offset_points="0,0.59515752"
       sort_points="true"
       interpolator_type="CubicBezierJohan"
       interpolator_beta="0.2"
       start_linecap_type="zerowidth"
       linejoin_type="extrp_arc"
       miter_limit="4"
       scale_width="1"
       end_linecap_type="zerowidth"
       not_jump="false"
       message="&lt;b&gt;Ctrl + click&lt;/b&gt; on existing node and move it" />
    <inkscape:path-effect
       effect="powerstroke"
       id="path-effect2126-2"
       is_visible="true"
       lpeversion="1"
       offset_points="0,0.6547011"
       sort_points="true"
       interpolator_type="CubicBezierJohan"
       interpolator_beta="0.2"
       start_linecap_type="zerowidth"
       linejoin_type="extrp_arc"
       miter_limit="4"
       scale_width="1"
       end_linecap_type="zerowidth"
       not_jump="false"
       message="&lt;b&gt;Ctrl + click&lt;/b&gt; on existing node and move it" />
    <inkscape:path-effect
       effect="powerstroke"
       id="path-effect2252-7"
       is_visible="true"
       lpeversion="1"
       offset_points="0,0.57087497"
       sort_points="true"
       interpolator_type="CubicBezierJohan"
       interpolator_beta="0.2"
       start_linecap_type="zerowidth"
       linejoin_type="extrp_arc"
       miter_limit="4"
       scale_width="1"
       end_linecap_type="zerowidth"
       not_jump="false"
       message="&lt;b&gt;Ctrl + click&lt;/b&gt; on existing node and move it" />
    <inkscape:path-effect
       effect="powerstroke"
       id="path-effect2276-2"
       is_visible="true"
       lpeversion="1"
       offset_points="8.9951978e-05,-0.81125537"
       sort_points="true"
       interpolator_type="CubicBezierJohan"
       interpolator_beta="0.2"
       start_linecap_type="zerowidth"
       linejoin_type="extrp_arc"
       miter_limit="4"
       scale_width="1"
       end_linecap_type="zerowidth"
       not_jump="false"
       message="&lt;b&gt;Ctrl + click&lt;/b&gt; on existing node and move it" />
    <clipPath
       clipPathUnits="userSpaceOnUse"
       id="clipPath121">
      <use
         x="0"
         y="0"
         xlink:href="#g120"
         id="use121"
         transform="translate(0,15.033911)" />
    </clipPath>
    <clipPath
       clipPathUnits="userSpaceOnUse"
       id="clipPath122">
      <circle
         style="fill:#ffffff;stroke-width:0.4;stroke-linecap:round;stroke-linejoin:round"
         id="circle123"
         cx="148.43546"
         cy="89.082245"
         r="120" />
    </clipPath>
  </defs>
  <sodipodi:namedview
     id="base"
     pagecolor="#ffffff"
     bordercolor="#666666"
     borderopacity="1.0"
     inkscape:pageopacity="0.0"
     inkscape:pageshadow="2"
     inkscape:zoom="0.14"
     inkscape:cx="50"
     inkscape:cy="1189.2857"
     inkscape:document-units="mm"
     inkscape:current-layer="layer5"
     inkscape:document-rotation="0"
     showgrid="false"
     inkscape:window-width="1920"
     inkscape:window-height="1009"
     inkscape:window-x="-8"
     inkscape:window-y="-8"
     inkscape:window-maximized="1"
     inkscape:pagecheckerboard="true"
     inkscape:snap-global="false"
     borderlayer="true"
     inkscape:showpageshadow="2"
     inkscape:deskcolor="#d1d1d1" />
  <metadata
     id="metadata19588">
    <rdf:RDF>
      <cc:Work
         rdf:about="">
        <dc:format>image/svg+xml</dc:format>
        <dc:type
           rdf:resource="http://purl.org/dc/dcmitype/StillImage" />
      </cc:Work>
    </rdf:RDF>
  </metadata>
  <g
     inkscape:groupmode="layer"
     id="layer7"
     inkscape:label="mountain"
     style="display:inline"
     transform="translate(-28.435455,30.917755)">
    <g
       id="g121"
       clip-path="url(#clipPath122)">
      <g
         inkscape:label="Clip"
         id="g120"
         transform="translate(0,-15.033911)">
        <g
           id="g117"
           clip-path="none"
           transform="translate(0,17.481399)">
          <path
             id="path898"
             style="display:inline;fill:#ffffff;fill-opacity:1;stroke:none;stroke-width:3.81789;stroke-linecap:round;stroke-linejoin:round;stroke-dashoffset:19.9937;paint-order:stroke fill markers"
             d="m 626.57812,250.23242 c -4.96526,7.9e-4 -9.93121,0.002 -14.89648,0.002 -32.29609,0.4113 -64.62281,1.12975 -96.8457,3.40234 -8.61732,1.13247 -15.87772,6.59381 -23.47071,10.41992 -37.19119,21.93204 -72.68356,46.58703 -108.5,70.66211 -10.37052,7.15573 -21.03367,14.97561 -27.5957,25.96094 -2.59733,4.24227 0.17982,9.29273 4.22266,11.3457 0.70702,0.46114 1.42666,0.8835 2.15234,1.2832 -0.14637,0.15005 -0.29318,0.29981 -0.43555,0.45313 -2.58875,2.91008 -5.07443,6.08947 -6.26953,9.84961 -0.79404,2.42785 -0.63922,5.21671 0.77539,7.39062 1.76405,2.75384 4.55754,4.65772 7.40039,6.16602 5.23044,2.68516 11.19398,3.46641 17.00196,3.63086 9.00518,0.15345 17.96056,-1.21422 26.75586,-3.03516 15.37889,-3.27314 30.36886,-8.12149 45.18359,-13.33984 5.76605,-2.04163 11.50137,-4.16909 17.2207,-6.33789 0.17084,-0.11452 0.24837,-0.27061 0.29297,-0.44141 15.2928,-5.78052 30.51154,-11.77484 45.9336,-17.14453 11.55099,-4.17185 24.12605,-4.23068 36.16797,-2.94727 20.49547,3.67042 37.83286,16.16774 55.48828,26.44727 12.70284,7.53298 27.23415,14.74937 42.43945,12.70703 8.28155,-1.78847 16.26315,-6.30393 21.55078,-12.98633 3.30198,-4.77641 2.69164,-11.49544 6.79492,-15.70508 3.2445,-1.26184 6.45568,1.48336 9.57617,2.16016 36.23456,14.14201 72.53493,28.37839 109.97852,39.04297 12.29053,3.59656 26.43917,6.55392 38.25586,0.82813 2.47476,-1.22922 9.92453,-3.70919 7.7168,-6.75 -2.00092,-4.16576 -4.62731,-11.45683 -14.2461,-11.08008 -2.15961,-1.14413 -4.34925,-2.22861 -6.55078,-3.28907 2.70358,-0.26655 5.39684,-0.6079 8.05078,-0.94531 4.08598,-1.43289 9.33518,-2.459 11.71485,-6.42187 0.68947,-4.54843 -4.67568,-7.02607 -7.73438,-9.24414 -14.36177,-7.99997 -29.86357,-13.6982 -44.52148,-21.1211 C 736.7,325.74803 685.1693,295.64521 638.96484,258.41992 c -4.03596,-2.78185 -7.8312,-6.51537 -12.38672,-8.1875 z"
             transform="scale(0.26458333)" />
          <path
             id="rect900"
             style="display:inline;fill:#001aad;fill-opacity:1;stroke:none;stroke-width:2;stroke-linecap:round;stroke-linejoin:round;stroke-dashoffset:19.9937;stroke-opacity:1;paint-order:stroke fill markers"
             d="m 163.67749,65.239339 c -6.86546,-0.0373 -25.96023,0.599879 -28.35072,0.997355 -2.732,0.454257 -14.5362,7.827491 -36.196756,22.662184 C 77.469455,103.73357 34.569511,120.37629 -23.056324,125.86097 L -26.322202,244.10233 344.06647,234.75606 341.6904,132.66469 C 295.8247,127.4492 234.94945,104.92555 204.99694,89.877627 175.04442,74.829712 168.96469,65.583554 165.78641,65.299283 c -0.39728,-0.03553 -1.12814,-0.05461 -2.10892,-0.05994 z m 0.40876,0.927076 c 0.66315,-0.0041 1.3231,0.02033 1.95596,0.161748 2.18493,1.12463 3.96244,2.889168 5.94847,4.316531 11.76365,9.224407 24.9392,16.457062 38.39766,22.876121 2.96889,1.48613 6.78733,2.26061 9.72004,3.814314 0.8059,0.87854 2.59416,2.23923 3.28359,3.251411 0.58414,0.80456 -1.30575,1.63183 -1.96053,1.95706 -3.1265,1.51495 -7.17421,0.66679 -10.42609,-0.28481 -9.90695,-2.821661 -19.51142,-6.588385 -29.09848,-10.330125 -0.82564,-0.17907 -1.67524,-0.905408 -2.53369,-0.57154 -1.08566,1.11379 -0.92417,2.89155 -1.79783,4.1553 -1.39902,1.768064 -3.51081,2.962764 -5.70198,3.435974 -4.02306,0.54037 -7.86782,-1.36897 -11.22877,-3.362074 -4.67134,-2.71978 -9.2585,-6.026375 -14.68127,-6.997507 -3.18609,-0.339569 -6.51323,-0.324004 -9.56944,0.779798 -8.60224,2.995149 -16.68008,7.085289 -25.49634,9.457673 -3.98925,1.08594 -8.50416,1.773411 -12.641459,1.285711 -1.202638,-0.255421 -4.262599,-1.100881 -4.600679,-2.485121 -0.224268,-2.086364 0.584566,-3.088764 1.572661,-4.836474 0.526356,-1.31563 3.481352,-2.796296 4.530035,-3.612697 9.905952,-6.687479 20.047012,-13.255923 30.322992,-19.369139 1.98826,-1.033646 3.90807,-2.483499 6.19807,-2.726966 8.5969,-0.583477 17.2174,-0.778478 25.83201,-0.904853 0.64556,0.0265 1.31193,-0.0062 1.97507,-0.01033 z"
             sodipodi:nodetypes="sssccccsssssccccccccccccccccccccccss"
             clip-path="none" />
          <path
             style="display:inline;fill:none;fill-opacity:0.33871;stroke:#001aad;stroke-width:2;stroke-linecap:round;stroke-linejoin:round;stroke-dashoffset:19.9937;stroke-opacity:1;paint-order:stroke fill markers"
             d="M 341.69048,132.66476 C 295.82477,127.44927 234.94954,104.92558 204.99702,89.877656 175.04451,74.829738 168.96493,65.583456 165.78665,65.299185 c -3.17827,-0.284274 -27.72772,0.483389 -30.45971,0.937646 -2.732,0.454258 -14.53642,7.827202 -36.196978,22.661893 C 77.469404,103.73342 34.569293,120.37651 -23.056546,125.86119"
             id="path71"
             sodipodi:nodetypes="czzzzc" />
        </g>
        <g
           id="g2"
           clip-path="none"
           style="display:inline"
           transform="translate(-10.356694,4.1179226)">
          <path
             id="path1877-3-0"
             style="display:inline;fill:#001aad;fill-opacity:1;stroke:none;stroke-width:10;stroke-linecap:round;stroke-linejoin:round;stroke-miterlimit:4;stroke-dasharray:none;stroke-dashoffset:19.9937;stroke-opacity:1;paint-order:stroke fill markers"
             d="m 153.0171,12.558883 c -0.82668,0.251662 -1.34841,1.500997 -1.39131,2.238761 -0.0896,-0.87359 -0.57839,-2.142905 -0.80725,-1.154835 -0.22886,0.988067 0.22304,2.387878 0.85328,3.57568 0.0529,0.09965 0.11242,0.195759 0.17853,0.288969 -0.0939,0.08859 -0.21011,0.181911 0.0163,0.394645 0.51816,0.486747 1.45097,0.999282 2.21415,1.283008 0.17309,0.06435 0.29671,-0.05344 0.41751,-0.21555 1.96362,0.290226 3.79796,-0.643062 4.53587,-2.11749 0.23425,-0.43273 -0.002,-0.459489 -0.42279,-0.306217 l -1.10638,0.55557 c 0.1324,-0.263504 0.37751,-1.007338 0.0437,-1.313008 -0.82068,-0.751438 -1.47037,-0.899651 -2.56849,-0.436305 -0.20826,-1.614831 -0.28858,-3.024124 -1.79396,-2.82963 -0.0578,0.0075 -0.11403,0.0196 -0.16914,0.03639 z"
             sodipodi:nodetypes="scsscssccccscsss" />
          <path
             style="opacity:1;fill:#001aad;fill-opacity:1;fill-rule:nonzero;stroke:none;stroke-width:10;stroke-linecap:round;stroke-linejoin:round;stroke-miterlimit:4;stroke-dasharray:none;stroke-dashoffset:19.9937;stroke-opacity:1;paint-order:stroke fill markers"
             d="m 324.5504,-5.4878157 c 0,0 -0.64772,-3.616178 -0.64772,-3.616178 -23.08362,4.1346588 -40.02285,9.42880015 -65.09649,17.8680716 -8.51824,2.8670651 -17.47769,5.8691081 -26.37047,8.2650081 -8.37998,2.257741 -17.17671,4.118508 -26.79262,5.094721 -1.60509,0.20311 -3.70831,0.401004 -6.25591,0.609152 -2.51228,0.205262 -5.40643,0.416591 -8.65645,0.653737 -6.38932,0.466216 -14.08237,1.026842 -22.27572,1.799794 -8.22235,0.77569 -16.89677,1.760057 -25.36957,3.07576 -8.65459,1.343931 -16.93594,3.008475 -24.28542,5.102635 -22.63018,6.341507 -33.434805,9.354593 -41.890655,11.789717 -4.576542,1.317957 -7.583288,2.216603 -9.926136,2.945341 -2.900372,0.902153 -4.710696,1.523827 -6.127292,2.007517 1.438486,-0.491164 3.235468,-1.006229 6.199588,-1.750011 2.462288,-0.617857 5.341835,-1.300905 10.057778,-2.42859 7.480603,-1.788776 20.541236,-4.922952 42.246677,-10.474198 7.29396,-1.829498 15.51914,-3.231555 24.12987,-4.309788 8.42794,-1.055344 17.0621,-1.780163 25.25334,-2.295974 8.17118,-0.514548 15.82381,-0.81617 22.22382,-1.031895 2.13177,-0.07185 6.56189,-0.206687 8.69366,-0.278542 2.55842,-0.08287 4.7405,-0.16093 6.4392,-0.250857 9.99178,-0.758087 19.13246,-2.443967 27.79704,-4.545591 9.17854,-2.226287 18.35278,-5.0625 26.9325,-7.75162 25.63679,-8.0352713 41.31071,-12.7319647 64.3687,-16.8620317 0,0 -0.64772,-3.616178 -0.64772,-3.616178 z"
             id="path1495"
             sodipodi:nodetypes="cssc"
             inkscape:original-d="M 324.5504,-5.4878157 C 271.86233,3.949491 244.17785,21.317177 205.87149,24.705706 192.51079,25.887575 148.76967,26.454451 119.08001,34.409773 77.685739,45.501337 67.699203,47.770864 60.855947,50.10746"
             inkscape:path-effect="#path-effect1497-3" />
          <path
             style="display:inline;fill:#001aad;fill-opacity:1;fill-rule:nonzero;stroke:none;stroke-width:10;stroke-linecap:round;stroke-linejoin:round;stroke-miterlimit:4;stroke-dasharray:none;stroke-dashoffset:19.9937;stroke-opacity:1;paint-order:stroke fill markers"
             d="m 143.6728,29.443102 c 0,0 0.3861,1.059893 0.3861,1.059893 -5.20666,1.896704 -11.29535,4.604098 -17.20965,8.744884 -4.33683,3.036351 -7.75786,6.272207 -10.43362,9.437661 -3.03027,3.584833 -4.74971,6.643508 -5.6565,8.433205 -0.90679,1.789697 -1.0657,2.305002 -1.0657,2.305002 l 0,0 c 0,0 0.0203,-0.550589 0.74329,-2.447528 0.70663,-1.854138 2.20571,-5.130043 5.09593,-8.992684 2.54039,-3.395101 5.90276,-6.904155 10.24995,-10.198752 5.90136,-4.472464 12.19421,-7.467266 17.5041,-9.401574 0,0 0.3861,1.059893 0.3861,1.059893 z"
             id="path1495-5"
             sodipodi:nodetypes="cc"
             inkscape:original-d="m 143.6728,29.443102 c -28.55727,10.40297 -33.97937,29.980645 -33.97937,29.980645"
             inkscape:path-effect="#path-effect1558-6" />
          <path
             style="display:inline;fill:#001aad;fill-opacity:1;fill-rule:nonzero;stroke:none;stroke-width:10;stroke-linecap:round;stroke-linejoin:round;stroke-miterlimit:4;stroke-dasharray:none;stroke-dashoffset:19.9937;stroke-opacity:1;paint-order:stroke fill markers"
             d="m 187.28032,25.802133 c 0,0 -0.002,1.489248 -0.002,1.489248 -5.33858,-0.0077 -11.98355,-0.49797 -18.98316,-2.057426 -6.99762,-1.559012 -12.89996,-3.859977 -17.68921,-6.439905 -4.64051,-2.499804 -7.60756,-4.92148 -9.14884,-6.350988 -1.60375,-1.487464 -1.83401,-1.95621 -1.83401,-1.95621 0,0 0.36901,0.348391 2.12762,1.595122 1.72731,1.224541 4.84373,3.278103 9.51456,5.376728 4.85345,2.18068 10.67013,4.076234 17.52683,5.31177 6.89473,1.242392 13.24584,1.534821 18.49053,1.542413 0,0 -0.002,1.489248 -0.002,1.489248 z"
             id="path1495-5-9"
             sodipodi:nodetypes="cc"
             inkscape:original-d="M 187.28032,25.802133 C 153.90385,25.753822 139.62294,10.486852 139.62294,10.486852"
             inkscape:path-effect="#path-effect1582-3" />
          <path
             style="display:inline;fill:#001aad;fill-opacity:1;fill-rule:nonzero;stroke:none;stroke-width:10.378;stroke-linecap:round;stroke-linejoin:round;stroke-miterlimit:4;stroke-dasharray:none;stroke-dashoffset:19.9937;stroke-opacity:1;paint-order:stroke fill markers"
             d="m 234.23005,19.276256 c 0,0 0.46199,1.543412 0.46199,1.543412 -5.9205,1.772166 -12.96621,4.611004 -20.09201,9.711036 -5.23377,3.745878 -9.52618,8.012265 -13.00976,12.35104 -3.94291,4.910871 -6.37542,9.303171 -7.69676,11.897062 -1.35541,2.660771 -1.60357,3.368834 -1.60357,3.368834 0,0 0.0592,-0.759446 1.14371,-3.573773 1.03308,-2.680857 3.14192,-7.365152 6.86875,-12.660081 3.27415,-4.65178 7.47752,-9.318202 12.74565,-13.451583 7.16153,-5.618946 14.5493,-8.882294 20.72001,-10.729359 0,0 0.46199,1.543412 0.46199,1.543412 z"
             id="path1495-5-9-7"
             sodipodi:nodetypes="cc"
             inkscape:original-d="M 234.23005,19.276256 C 201.39362,29.105101 192.28994,58.14764 192.28994,58.14764"
             inkscape:path-effect="#path-effect1606-4" />
          <path
             style="display:inline;fill:#001aad;fill-opacity:1;stroke:none;stroke-width:5.31178;stroke-linecap:round;stroke-linejoin:round;stroke-miterlimit:4;stroke-dasharray:none;stroke-dashoffset:19.9937;stroke-opacity:1;paint-order:stroke fill markers"
             d="m 111.20649,54.980953 c 0.32383,0.09224 0.61834,0.277668 0.74713,0.588769 0.056,0.135174 -0.1386,0.374448 -0.1386,0.374448 3.12337,2.221008 2.23251,5.313832 0.66158,7.567945 -0.96195,0.734183 -2.74383,-0.766331 -2.93371,-1.493022 -1.87514,1.993882 -4.10395,-0.100658 -2.93038,-2.186769 -2.44697,0.460566 -2.80916,-1.487706 -2.42046,-2.139119 1.53093,-2.565642 4.05879,-3.34369 6.16761,-2.571564 0,0 0.10541,-0.223851 0.21074,-0.262607 0.20261,-0.07455 0.44994,0.06888 0.63609,0.121915 z"
             id="path1535-7"
             sodipodi:nodetypes="ssccccscsss" />
          <path
             style="display:inline;fill:#001aad;fill-opacity:1;stroke:none;stroke-width:5.31178;stroke-linecap:round;stroke-linejoin:round;stroke-miterlimit:4;stroke-dasharray:none;stroke-dashoffset:19.9937;stroke-opacity:1;paint-order:stroke fill markers"
             d="m 142.65845,12.748726 c -0.15126,0.30083 -0.38854,0.555412 -0.71826,0.623672 -0.14326,0.02971 -0.34187,-0.20626 -0.34187,-0.20626 -2.76656,2.65226 -5.63787,1.198049 -7.55797,-0.767162 -0.54109,-1.082409 1.26654,-2.5518132 2.01593,-2.602267 -1.60751,-2.2153159 0.86731,-4.01252 2.69678,-2.4690974 0.006,-2.4899296 1.98739,-2.4809136 2.5545,-1.9771163 2.23361,1.9842513 2.52458,4.6130866 1.37125,6.5400357 0,0 0.20015,0.145459 0.2185,0.256183 0.0353,0.212984 -0.15191,0.429085 -0.23886,0.602012 z"
             id="path1535-7-0"
             sodipodi:nodetypes="ssccccscsss" />
          <path
             style="display:inline;fill:#001aad;fill-opacity:1;stroke:none;stroke-width:5.42315;stroke-linecap:round;stroke-linejoin:round;stroke-miterlimit:4;stroke-dasharray:none;stroke-dashoffset:19.9937;stroke-opacity:1;paint-order:stroke fill markers"
             d="m 194.54624,52.725057 c -0.25666,-0.25748 -0.58074,-0.44903 -0.92775,-0.436251 -0.1508,0.0055 -0.25959,0.283953 -0.25959,0.283953 -3.66395,-1.924611 -5.94494,0.188355 -7.1112,2.571322 -0.13745,1.188005 2.16118,2.188015 2.91204,2.056686 -0.77021,2.551988 2.29926,3.711465 3.52948,1.762462 0.90626,2.431451 2.84025,1.944992 3.21243,1.316053 1.46585,-2.477135 0.79942,-5.115832 -1.02507,-6.720603 0,0 0.14305,-0.19037 0.12094,-0.302972 -0.0425,-0.216613 -0.30371,-0.38263 -0.45125,-0.530651 z"
             id="path1535-7-1"
             sodipodi:nodetypes="ssccccscsss" />
          <path
             style="display:inline;fill:#001aad;fill-opacity:1;fill-rule:nonzero;stroke:none;stroke-width:10;stroke-linecap:round;stroke-linejoin:round;stroke-miterlimit:4;stroke-dasharray:none;stroke-dashoffset:19.9937;stroke-opacity:1;paint-order:stroke fill markers"
             d="m 320.83352,55.022408 c -0.25096,-0.01802 -0.87464,-2.068722 -1.12926,-2.084758 -9.32803,-0.587512 -21.86944,-0.317091 -37.51004,2.175731 -11.91143,1.898461 -23.53301,4.750267 -34.28335,8.007061 -10.4832,3.175864 -19.12438,6.430121 -24.86961,8.725263 -3.24279,1.295454 -5.81716,2.388228 -7.36906,3.047634 -0.97929,0.4161 -1.64338,0.699094 -2.15426,0.907861 -0.28384,0.115987 -0.49946,0.200349 -0.66401,0.259425 -0.0904,0.03244 -0.16463,0.05701 -0.22546,0.07474 -0.0323,0.0094 -0.0607,0.01688 -0.0857,0.02257 -0.0262,0.006 -0.0485,0.0099 -0.0675,0.01215 0.0189,-0.0022 0.0414,-0.0055 0.0679,-0.01023 0.0253,-0.0045 0.0542,-0.01019 0.0872,-0.01731 0.0621,-0.01341 0.1384,-0.03178 0.2316,-0.05626 0.16988,-0.04463 0.39274,-0.108707 0.68675,-0.19916 0.52326,-0.160986 1.22147,-0.389704 2.22459,-0.728294 1.68574,-0.568993 4.16276,-1.429821 7.54372,-2.561545 5.89638,-1.973722 14.65001,-4.801096 25.14227,-7.527952 10.82799,-2.814112 22.37713,-5.222813 34.19787,-6.744795 15.57428,-2.005272 27.6396,-1.963175 36.79522,-1.386523 0.24764,0.0156 1.13025,-1.933625 1.38121,-1.915606 z"
             id="path1495-7"
             sodipodi:nodetypes="cc"
             inkscape:original-d="M 320.83352,55.022408 C 269.09705,51.307691 214.96012,75.881181 212.47528,76.17008"
             inkscape:path-effect="#path-effect1728-9"
             transform="translate(-5.3453905)" />
          <path
             style="display:inline;fill:#001aad;fill-opacity:1;stroke:none;stroke-width:5.31178;stroke-linecap:round;stroke-linejoin:round;stroke-miterlimit:4;stroke-dasharray:none;stroke-dashoffset:19.9937;stroke-opacity:1;paint-order:stroke fill markers"
             d="m 211.64235,74.313763 c 0.16515,0.293417 0.24398,0.632382 0.11656,0.944072 -0.0553,0.135461 -0.36198,0.168545 -0.36198,0.168545 0.65642,3.775907 -2.15288,5.346587 -4.85521,5.842797 -1.20012,-0.15523 -1.41035,-2.475237 -1.03391,-3.125195 -2.73538,0.09726 -2.84516,-2.959314 -0.54337,-3.615762 -2.06274,-1.394601 -0.9492,-3.033756 -0.2146,-3.223116 2.89313,-0.745709 5.23674,0.480236 6.19181,2.512761 0,0 0.23242,-0.08484 0.33452,-0.0383 0.19642,0.0896 0.27122,0.365543 0.36617,0.534211 z"
             id="path1535-8"
             sodipodi:nodetypes="ssccccscsss" />
          <path
             style="display:inline;fill:#001aad;fill-opacity:1;fill-rule:nonzero;stroke:none;stroke-width:10;stroke-linecap:round;stroke-linejoin:round;stroke-miterlimit:4;stroke-dasharray:none;stroke-dashoffset:19.9937;stroke-opacity:1;paint-order:stroke fill markers"
             d="m 292.67428,55.130292 c 0,0 0.16231,1.116289 0.16231,1.116289 -5.69178,0.827619 -12.30479,2.474953 -18.59908,6.073002 -4.62129,2.641704 -8.21876,5.852282 -10.99335,9.224474 -2.71079,3.294647 -4.36844,6.421108 -5.3278,8.53762 -1.33002,2.934239 -1.44943,3.761123 -1.44943,3.761123 0,0 -0.0585,-0.850298 1.03635,-3.927745 0.78889,-2.217506 2.25207,-5.516896 4.84972,-9.062579 2.65616,-3.625535 6.23752,-7.15164 10.95619,-10.087445 6.41212,-3.989409 13.33594,-5.897957 19.20278,-6.751028 z"
             id="path1495-5-91"
             sodipodi:nodetypes="cc"
             inkscape:original-d="M 292.67428,55.130292 C 261.28221,59.69488 256.46693,83.8428 256.46693,83.8428"
             inkscape:path-effect="#path-effect1730-8"
             transform="translate(-5.3453905)" />
          <path
             style="display:inline;fill:#001aad;fill-opacity:1;stroke:none;stroke-width:5.31178;stroke-linecap:round;stroke-linejoin:round;stroke-miterlimit:4;stroke-dasharray:none;stroke-dashoffset:19.9937;stroke-opacity:1;paint-order:stroke fill markers"
             d="m 253.2935,77.427439 c 0.33599,0.02218 0.66288,0.141615 0.85412,0.418734 0.0832,0.1204 -0.0569,0.395207 -0.0569,0.395207 3.52014,1.515547 3.29867,4.726483 2.23615,7.260246 -0.78632,0.919825 -2.84357,-0.173016 -3.18183,-0.843629 -1.41459,2.343212 -4.03356,0.763447 -3.32427,-1.522608 -2.29567,0.964177 -3.05895,-0.864585 -2.81572,-1.583101 0.95799,-2.829932 3.26609,-4.121495 5.49003,-3.809459 0,0 0.056,-0.240992 0.15088,-0.301008 0.18237,-0.115532 0.45439,-0.02711 0.64751,-0.01438 z"
             id="path1535-7-9"
             sodipodi:nodetypes="ssccccscsss" />
          <path
             style="display:inline;fill:#001aad;fill-opacity:1;stroke:none;stroke-width:6.81004;stroke-linecap:round;stroke-linejoin:round;stroke-miterlimit:4;stroke-dasharray:none;stroke-dashoffset:19.9937;stroke-opacity:1;paint-order:stroke fill markers"
             d="m 224.86837,76.61347 c -1.24722,0.49089 -1.0278,0.54631 -2.1421,-0.556119 l 0.62075,-0.312893 -0.67038,-0.817159 c 0.88526,-0.499845 0.87818,-0.981497 1.90049,-0.324717 -0.14932,-0.644585 -0.42676,-1.389568 0.37872,-2.00851 l 0.62113,0.501912 0.20739,-0.667414 c 0.56555,0.278258 1.4162,0.417477 1.36331,1.851614 0.85778,-0.318184 1.13889,-0.0592 1.99023,0.544723 l -0.46445,0.204792 0.7127,0.496802 c -0.21713,0.680945 -0.33881,0.831219 -1.00905,0.930771 0.22098,0.50653 0.27415,1.184235 0.005,1.510114 l -0.62332,-0.442175 0.0435,0.746155 c -0.5781,0.194969 -0.80651,-0.401958 -1.21539,-0.905977 -0.25146,0.970367 -0.49065,1.127525 -1.05355,1.310861 l -0.29752,-1.016828 -0.24526,0.868265 c -0.66353,-0.643578 -0.86834,-1.375199 -0.12232,-1.914265 z"
             id="path1830-6"
             sodipodi:nodetypes="ccccccccccccccccccccc" />
          <path
             style="display:inline;fill:#001aad;fill-opacity:1;stroke:none;stroke-width:10;stroke-linecap:round;stroke-linejoin:round;stroke-miterlimit:4;stroke-dasharray:none;stroke-dashoffset:19.9937;stroke-opacity:1;paint-order:stroke fill markers"
             d="m 116.22927,45.837593 c -2.12774,-0.399965 -1.8952,-0.177056 -2.25508,-2.192447 l 1.12754,0.12528 -0.0626,-1.3781 c 1.66165,0.12097 2.13405,-0.40254 2.81886,1.0649 0.44868,-0.80466 0.82955,-1.81272 2.50565,-1.87924 l 0.3132,1.00226 0.93962,-0.56377 c 0.46395,0.72025 1.44107,1.50307 -0.0626,3.006782 1.44392,0.295982 1.55383,0.783833 2.06716,2.067162 l -0.81434,-0.125284 0.4385,1.064904 c -0.96594,0.571092 -1.27592,0.642228 -2.25508,0.250564 -0.21653,0.709473 -0.8245,1.478206 -1.5034,1.628674 l -0.37585,-0.939621 -0.68905,0.835218 c -0.95367,-0.220425 -0.65647,-1.03266 -0.68901,-1.879237 -1.30045,0.856942 -1.7715,0.848041 -2.69358,0.626413 l 0.62642,-1.315468 -1.19018,0.751694 c -0.22717,-1.186235 0.23569,-2.125844 1.75386,-2.150684 z"
             id="path1830-0"
             sodipodi:nodetypes="ccccccccccccccccccccc" />
          <path
             id="path1877-3-3-8"
             style="display:inline;fill:#001aad;fill-opacity:1;stroke:none;stroke-width:9.44614;stroke-linecap:round;stroke-linejoin:round;stroke-miterlimit:4;stroke-dasharray:none;stroke-dashoffset:19.9937;stroke-opacity:1;paint-order:stroke fill markers"
             d="m 249.92264,35.522604 c 0.52518,-0.540306 0.41455,-1.958171 0.14802,-2.701854 0.42203,0.831075 1.30754,1.911952 1.0806,0.855462 -0.22688,-1.056502 -1.13724,-2.279289 -2.09691,-3.229789 -0.0804,-0.07978 -0.16462,-0.15364 -0.25259,-0.222342 0.0353,-0.120626 0.0857,-0.253799 -0.17227,-0.383977 -0.59044,-0.297771 -1.50593,-0.474646 -2.19996,-0.485445 -0.15734,-0.0025 -0.20346,0.157503 -0.2294,0.360227 -1.60742,0.406477 -2.62077,1.975574 -2.58291,3.692028 -0.002,0.510002 0.18799,0.452941 0.44492,0.153154 l 0.61416,-0.939138 c 0.006,0.306922 0.12195,1.127992 0.4993,1.311958 0.92726,0.452369 1.48027,0.369399 2.12556,-0.475744 0.81263,1.521127 1.44488,2.88445 2.50817,2.161028 0.0407,-0.02771 0.0786,-0.05962 0.11352,-0.09562 z"
             sodipodi:nodetypes="scsscssccccscsss" />
          <path
             style="display:inline;fill:#001aad;fill-opacity:1;fill-rule:nonzero;stroke:none;stroke-width:10;stroke-linecap:round;stroke-linejoin:round;stroke-miterlimit:4;stroke-dasharray:none;stroke-dashoffset:19.9937;stroke-opacity:1;paint-order:stroke fill markers"
             d="m 260.3209,13.568791 c 0,0 -0.60925,-0.821967 -0.60925,-0.821967 -1.2619,0.935337 -2.89875,2.522606 -4.85151,5.055716 -1.44117,1.869474 -2.83163,3.96429 -4.09202,6.053575 -1.24322,2.060798 -2.23719,3.912055 -2.90743,5.228063 -0.38363,0.75325 -0.66375,1.335647 -0.85161,1.735581 -0.11083,0.235941 -0.19362,0.417045 -0.25237,0.545209 -0.0341,0.07441 -0.0608,0.132532 -0.0823,0.177864 -0.0246,0.05196 -0.042,0.08639 -0.055,0.108086 0.013,-0.02154 0.0345,-0.05391 0.0668,-0.101378 0.0269,-0.0396 0.0657,-0.09625 0.11055,-0.161968 0.0857,-0.125505 0.18533,-0.272133 0.33692,-0.497173 0.36993,-0.549153 0.70534,-1.052182 1.07526,-1.601334 0.80268,-1.191363 2.01794,-2.977362 3.41002,-4.864638 1.44238,-1.955467 2.9583,-3.863906 4.50205,-5.569539 2.10861,-2.329712 3.66387,-3.615193 4.8092,-4.46413 z"
             id="path1954-5-3"
             inkscape:path-effect="#path-effect2030-6"
             inkscape:original-d="m 260.3209,13.568791 c -6.52713,4.837988 -13.2454,17.325252 -13.70153,18.082127"
             sodipodi:nodetypes="cc" />
          <path
             style="display:inline;fill:#001aad;fill-opacity:1;stroke:none;stroke-width:8.47397;stroke-linecap:round;stroke-linejoin:round;stroke-miterlimit:4;stroke-dasharray:none;stroke-dashoffset:19.9937;stroke-opacity:1;paint-order:stroke fill markers"
             d="m 263.69214,63.350311 c -0.91642,-1.702916 -0.91273,-1.397293 -0.0192,-2.984264 l 0.53229,0.844612 0.70859,-0.9613 c 0.8187,1.202255 1.35179,1.171982 0.92605,2.61284 0.67183,-0.233775 1.41709,-0.648959 2.3444,0.438001 l -0.37296,0.879804 0.80327,0.258246 c -0.14096,0.793486 -0.0427,1.975076 -1.65196,1.962952 0.60867,1.172 0.4045,1.571533 -0.0133,2.773863 l -0.3657,-0.633212 -0.34004,1.006156 c -0.8212,-0.271123 -1.02439,-0.432918 -1.33434,-1.35502 -0.49711,0.326984 -1.23432,0.429289 -1.67642,0.07139 l 0.30591,-0.880325 -0.81612,0.09191 c -0.38859,-0.790705 0.20674,-1.131777 0.64518,-1.718318 -1.15302,-0.306284 -1.39878,-0.630168 -1.76991,-1.400352 l 1.04135,-0.454459 -1.03771,-0.302043 c 0.51777,-0.944428 1.26978,-1.258628 2.09066,-0.250465 z"
             id="path1830-3"
             sodipodi:nodetypes="ccccccccccccccccccccc" />
          <path
             style="display:inline;fill:#001aad;fill-opacity:1;stroke:none;stroke-width:9.6845;stroke-linecap:round;stroke-linejoin:round;stroke-miterlimit:4;stroke-dasharray:none;stroke-dashoffset:19.9937;stroke-opacity:1;paint-order:stroke fill markers"
             d="m 239.17042,50.456809 c 2.37226,0.06883 2.09557,-0.08994 2.68617,1.565682 l -1.24869,0.03668 0.20261,1.155273 c -1.83401,0.10778 -2.30117,0.609314 -3.19482,-0.542773 -0.41381,0.735842 -0.73351,1.634798 -2.56511,1.90265 l -0.4409,-0.806391 -0.97564,0.594532 c -0.57879,-0.549324 -1.72646,-1.086636 -0.22365,-2.545763 -1.61224,-0.06744 -1.78021,-0.465326 -2.46791,-1.483674 l 0.90523,0.0029 -0.5844,-0.843438 c 1.00375,-0.604031 1.33679,-0.703231 2.44864,-0.496323 0.1685,-0.62618 0.76048,-1.351815 1.49036,-1.564568 l 0.50353,0.745608 0.67445,-0.791997 c 1.06728,0.06559 0.82032,0.788691 0.9383,1.49913 1.34282,-0.887556 1.86027,-0.939543 2.893,-0.86895 l -0.55907,1.189436 1.23212,-0.784794 c 0.36448,0.972528 -0.0518,1.824076 -1.71428,2.036802 z"
             id="path1830-3-2"
             sodipodi:nodetypes="ccccccccccccccccccccc" />
          <path
             id="path1877-3-5"
             style="display:inline;fill:#001aad;fill-opacity:1;stroke:none;stroke-width:9.20522;stroke-linecap:round;stroke-linejoin:round;stroke-miterlimit:4;stroke-dasharray:none;stroke-dashoffset:19.9937;stroke-opacity:1;paint-order:stroke fill markers"
             d="m 191.05515,40.794264 c 0.83399,0.321169 2.22314,-0.05983 2.83981,-0.431065 -0.62241,0.516967 -1.25128,1.465935 -0.29376,1.063274 0.95753,-0.402657 1.71802,-1.401101 2.17381,-2.384407 0.0378,-0.08256 0.0683,-0.166827 0.0915,-0.253113 0.14222,0.0044 0.3053,0.01849 0.29971,-0.220244 -0.0128,-0.546267 -0.32367,-1.334985 -0.68528,-1.907693 -0.082,-0.129895 -0.27015,-0.135014 -0.49119,-0.114857 -1.27838,-1.238166 -3.42553,-1.750154 -5.1588,-1.367884 -0.5223,0.102438 -0.36181,0.247193 0.0824,0.397045 l 1.28924,0.312735 c -0.31017,0.06803 -1.08694,0.330994 -1.07239,0.678699 0.0357,0.854758 0.41738,1.292355 1.62732,1.649898 -1.11774,0.979175 -2.1711,1.777787 -0.86107,2.503822 0.0504,0.02788 0.1031,0.0524 0.15868,0.07379 z"
             sodipodi:nodetypes="scsscssccccscsss" />
          <path
             style="display:inline;fill:#001aad;fill-opacity:1;fill-rule:nonzero;stroke:none;stroke-width:10;stroke-linecap:round;stroke-linejoin:round;stroke-miterlimit:4;stroke-dasharray:none;stroke-dashoffset:19.9937;stroke-opacity:1;paint-order:stroke fill markers"
             d="m 209.56447,33.008718 c 0,0 -0.32748,-0.496962 -0.32748,-0.496962 -0.86663,0.571075 -2.17152,1.318974 -4.34758,2.173244 -1.59705,0.626968 -3.35387,1.188903 -5.14172,1.684092 -1.74488,0.483289 -3.3538,0.856887 -4.5051,1.106199 -0.65778,0.142442 -1.1989,0.251364 -1.57211,0.322804 -0.22405,0.04289 -0.40351,0.07535 -0.53971,0.0982 -0.16881,0.02831 -0.27797,0.04305 -0.34714,0.0478 0.0696,-0.0048 0.17892,-0.01001 0.35022,-0.02126 0.1389,-0.0091 0.31945,-0.02227 0.5481,-0.04224 0.38773,-0.03386 0.92183,-0.08808 1.60024,-0.173654 1.18586,-0.14959 2.80087,-0.394145 4.60395,-0.759015 1.82546,-0.3694 3.6579,-0.824811 5.32445,-1.363224 2.257,-0.729165 3.741,-1.459363 4.68136,-2.079019 z"
             id="path1954-6"
             inkscape:path-effect="#path-effect2098-5"
             inkscape:original-d="m 209.56447,33.008718 c -4.91923,3.241567 -15.48064,4.84608 -16.78084,4.935375"
             sodipodi:nodetypes="cc" />
          <path
             id="path1877-3-5-9"
             style="display:inline;fill:#001aad;fill-opacity:1;stroke:none;stroke-width:10.1262;stroke-linecap:round;stroke-linejoin:round;stroke-miterlimit:4;stroke-dasharray:none;stroke-dashoffset:19.9937;stroke-opacity:1;paint-order:stroke fill markers"
             d="m 102.70659,28.618951 c 0.95385,-0.128981 2.14646,0.678886 2.58847,1.263167 -0.38459,-0.748577 -0.58861,-1.981264 0.17285,-1.268059 0.76148,0.713212 1.07272,2.037378 1.09279,3.260763 0.001,0.102622 -0.005,0.20506 -0.0201,0.307782 0.14087,0.03423 0.30632,0.06341 0.1976,0.328426 -0.24903,0.606296 -0.89375,1.40141 -1.49477,1.941323 -0.1363,0.12246 -0.32237,0.07637 -0.52965,-0.007 -1.78472,1.030477 -4.10426,1.010959 -5.632581,0.106932 -0.466054,-0.25818 -0.246611,-0.375614 0.252201,-0.420668 l 1.39505,0.0058 c -0.27364,-0.161359 -0.91893,-0.668822 -0.754311,-1.053038 0.404611,-0.944527 0.966861,-1.328026 2.303791,-1.394109 -0.66867,-1.401015 -1.35252,-2.582705 0.24162,-3.032655 0.0614,-0.01722 0.12342,-0.03011 0.18696,-0.0387 z"
             sodipodi:nodetypes="scsscssccccscsss" />
          <path
             style="display:inline;fill:#001aad;fill-opacity:1;fill-rule:nonzero;stroke:none;stroke-width:11.0005;stroke-linecap:round;stroke-linejoin:round;stroke-miterlimit:4;stroke-dasharray:none;stroke-dashoffset:19.9937;stroke-opacity:1;paint-order:stroke fill markers"
             d="m 120.55406,33.851774 c 0,0 -0.18225,-0.628823 -0.18225,-0.628823 -1.32786,0.38485 -3.15544,0.799768 -5.62167,0.913568 -1.81776,0.08388 -3.678,-0.01185 -5.48411,-0.252398 -1.78301,-0.237468 -3.3252,-0.591082 -4.48906,-0.938514 -0.66448,-0.198359 -1.1966,-0.39169 -1.60201,-0.563501 -0.2386,-0.101115 -0.43407,-0.195038 -0.59233,-0.280362 -0.19488,-0.105065 -0.33341,-0.197094 -0.43052,-0.275476 0.0969,0.07819 0.22943,0.17884 0.41547,0.300729 0.15131,0.09913 0.33784,0.212204 0.56748,0.337588 0.39102,0.213499 0.90434,0.461053 1.55627,0.724942 1.14238,0.462413 2.66487,0.955181 4.46268,1.339641 1.81342,0.387798 3.72372,0.625762 5.61069,0.658134 2.55017,0.04375 4.55649,-0.296563 5.97161,-0.706705 z"
             id="path1954-6-3"
             inkscape:path-effect="#path-effect2126-2"
             inkscape:original-d="m 120.55406,33.851774 c -7.52954,2.182269 -16.58725,-0.560778 -18.40195,-2.025506"
             sodipodi:nodetypes="cc" />
          <path
             id="path1877-3-0-4"
             style="display:inline;fill:#001aad;fill-opacity:1;stroke:none;stroke-width:8.7235;stroke-linecap:round;stroke-linejoin:round;stroke-miterlimit:4;stroke-dasharray:none;stroke-dashoffset:19.9937;stroke-opacity:1;paint-order:stroke fill markers"
             d="m 133.76431,38.625675 c 0.0151,-0.662794 -1.00501,-1.315577 -1.68852,-1.505793 0.85228,0.121846 2.20025,0.03488 1.33727,-0.346077 -0.863,-0.380963 -2.32292,-0.349206 -3.63719,-0.140547 -0.11026,0.01754 -0.21921,0.04068 -0.32744,0.06932 -0.0549,-0.08817 -0.10753,-0.193819 -0.37761,-0.07287 -0.61804,0.276868 -1.3872,0.853498 -1.88846,1.354429 -0.11367,0.113615 -0.0403,0.229959 0.0759,0.353764 -0.87443,1.383426 -0.55406,2.934734 0.61252,3.795085 0.33698,0.265524 0.43448,0.09734 0.41842,-0.245463 l -0.18632,-0.934087 c 0.20834,0.154143 0.83575,0.494557 1.22642,0.314529 0.96046,-0.442697 1.29906,-0.889202 1.19732,-1.79739 1.58845,0.193869 2.94371,0.437775 3.22035,-0.712489 0.011,-0.04405 0.0163,-0.0882 0.0174,-0.132368 z"
             sodipodi:nodetypes="scsscssccccscsss" />
          <path
             style="display:inline;fill:#001aad;fill-opacity:1;fill-rule:nonzero;stroke:none;stroke-width:10;stroke-linecap:round;stroke-linejoin:round;stroke-miterlimit:4;stroke-dasharray:none;stroke-dashoffset:19.9937;stroke-opacity:1;paint-order:stroke fill markers"
             d="m 243.5483,65.273222 c 0,0 -0.21849,-0.52741 -0.21849,-0.52741 -2.30658,0.955534 -5.41996,2.859693 -8.2128,5.739493 -1.09588,1.13 -1.94285,2.209715 -2.55234,3.147699 -0.3467,0.533547 -0.60421,1.001741 -0.79477,1.401761 -0.24975,0.524285 -0.37708,0.915493 -0.45439,1.189712 0.0774,-0.27465 0.23334,-0.656261 0.52496,-1.152265 0.22229,-0.378065 0.51961,-0.81592 0.90746,-1.307946 0.68144,-0.864477 1.60669,-1.849998 2.76286,-2.865637 3.01475,-2.648329 5.99391,-4.160898 8.256,-5.097997 0,0 -0.21849,-0.52741 -0.21849,-0.52741 z"
             id="path1954-5"
             inkscape:path-effect="#path-effect2252-7"
             inkscape:original-d="m 243.5483,65.273222 c -6.44328,2.669213 -11.43753,8.130356 -12.23279,10.951255"
             sodipodi:nodetypes="cc"
             transform="translate(-5.3453905)" />
          <path
             style="display:inline;fill:#001aad;fill-opacity:1;fill-rule:nonzero;stroke:none;stroke-width:10;stroke-linecap:round;stroke-linejoin:round;stroke-miterlimit:4;stroke-dasharray:none;stroke-dashoffset:19.9937;stroke-opacity:1;paint-order:stroke fill markers"
             d="m 262.60591,60.379581 c -6.2e-4,1.43e-4 0.17975,0.791095 0.17913,0.791238 -2.14909,0.495236 -4.96736,0.685849 -8.1329,-0.156694 -2.33621,-0.621806 -4.48278,-1.704186 -6.39888,-3.059568 -1.88806,-1.335554 -3.38527,-2.817495 -4.46886,-4.062447 -0.61859,-0.710703 -1.10714,-1.349274 -1.47373,-1.861251 -0.4721,-0.659344 -0.78651,-1.172029 -0.96052,-1.450881 0.18085,0.289817 0.51758,0.757942 1.04993,1.380891 0.40629,0.475435 0.94764,1.064879 1.61667,1.710669 1.17557,1.13472 2.75931,2.456519 4.67958,3.603329 1.95175,1.165613 4.04781,2.029563 6.25279,2.471275 2.9769,0.596346 5.50528,0.296717 7.47158,-0.156397 5.9e-4,-1.37e-4 0.18461,0.789973 0.18521,0.789836 z"
             id="path1495-5-9-0-0"
             sodipodi:nodetypes="cc"
             inkscape:original-d="m 262.60591,60.379581 c -11.27237,2.599612 -19.32535,-6.706062 -21.25576,-9.799603"
             inkscape:path-effect="#path-effect2276-2"
             transform="translate(-5.3453905)" />
          <path
             style="display:inline;fill:#001aad;fill-opacity:1;stroke:none;stroke-width:10;stroke-linecap:round;stroke-linejoin:round;stroke-miterlimit:4;stroke-dasharray:none;stroke-dashoffset:19.9937;stroke-opacity:1;paint-order:stroke fill markers"
             d="m 203.54372,42.185986 c 1.06212,-1.886567 0.77634,-1.737936 2.80054,-1.431482 l -0.48076,1.027572 1.32519,0.383311 c -0.64822,1.534771 -0.30416,2.150277 -1.91379,2.327522 0.61793,0.683337 1.45026,1.367782 0.97496,2.976452 l -1.04975,-0.02528 0.23213,1.070904 c -0.8311,0.208055 -1.88626,0.881998 -2.82739,-1.02495 -0.74404,1.272368 -1.24134,1.219776 -2.62155,1.293754 l 0.38019,-0.730962 -1.14932,0.07326 c -0.23062,-1.098182 -0.19843,-1.414587 0.48695,-2.216087 -0.60234,-0.432915 -0.51497,-0.901213 -0.43943,-1.592472 l 0.39043,-0.408523 0.49339,-0.389259 c 0.51503,-0.832356 0.12572,-0.821569 0.9379,-0.580499 -0.39389,-1.506775 0.47454,-1.507071 0.98056,-2.309124 l 0.33589,0.572773 -0.32963,-1.368545 c 1.19635,0.165839 1.93753,0.905946 1.47347,2.351667 z"
             id="path1830-0-4"
             sodipodi:nodetypes="cccccccccccccccccccccc" />
          <path
             id="path1877-3-3-8-3-9"
             style="display:inline;fill:#001aad;fill-opacity:1;stroke:none;stroke-width:5.07834;stroke-linecap:round;stroke-linejoin:round;stroke-miterlimit:4;stroke-dasharray:none;stroke-dashoffset:19.9937;stroke-opacity:1;paint-order:stroke fill markers"
             d="m 233.16525,71.215041 c -0.13645,-0.386841 -0.83716,-0.669531 -1.25267,-0.715227 0.49292,-0.01003 1.2115,-0.18868 0.65611,-0.328229 -0.55537,-0.139576 -1.34724,0.01757 -2.0208,0.263697 -0.0565,0.0206 -0.11105,0.04445 -0.16402,0.0714 -0.0494,-0.04605 -0.10115,-0.102484 -0.22252,-0.0065 -0.2777,0.219681 -0.57265,0.628024 -0.73753,0.966903 -0.0374,0.07682 0.0282,0.137546 0.11876,0.198504 -0.17639,0.887459 0.33765,1.759074 1.16381,2.148557 0.24235,0.122392 0.25898,0.01521 0.17534,-0.18247 l -0.3059,-0.525448 c 0.14765,0.06981 0.56527,0.2082 0.73973,0.06629 0.42886,-0.348629 0.51663,-0.640426 0.26266,-1.158833 0.91146,-0.03812 1.70625,-0.02503 1.60646,-0.720142 -0.004,-0.0266 -0.0103,-0.05285 -0.0194,-0.07858 z"
             sodipodi:nodetypes="scsscssccccscsss" />
          <path
             id="path1877-3-3-8-3-9-2"
             style="display:inline;fill:#001aad;fill-opacity:1;stroke:none;stroke-width:5.07834;stroke-linecap:round;stroke-linejoin:round;stroke-miterlimit:4;stroke-dasharray:none;stroke-dashoffset:19.9937;stroke-opacity:1;paint-order:stroke fill markers"
             d="m 240.64168,59.655532 c 0.40448,-0.06826 0.80288,-0.710272 0.91899,-1.111838 -0.0745,0.487368 -0.0214,1.225918 0.21114,0.702591 0.23253,-0.523303 0.21318,-1.330383 0.0859,-2.036121 -0.0106,-0.05919 -0.0248,-0.117017 -0.0423,-0.173817 0.0538,-0.04079 0.11828,-0.08213 0.0445,-0.218127 -0.16893,-0.31119 -0.52079,-0.671652 -0.82646,-0.892077 -0.0693,-0.04999 -0.14035,0.0043 -0.2159,0.08305 -0.8442,-0.325619 -1.7909,0.03172 -2.31599,0.77907 -0.16205,0.217837 -0.0593,0.252559 0.14978,0.203972 l 0.57004,-0.211495 c -0.094,0.13353 -0.30184,0.521317 -0.19187,0.717483 0.27012,0.482182 0.5426,0.618579 1.09681,0.457044 -0.11837,0.904544 -0.26725,1.685377 0.43469,1.70598 0.0269,6.1e-4 0.0538,-0.0011 0.0807,-0.0057 z"
             sodipodi:nodetypes="scsscssccccscsss" />
          <path
             style="display:inline;fill:#001aad;fill-opacity:1;stroke:none;stroke-width:0.789181;stroke-linecap:round;stroke-linejoin:round;stroke-miterlimit:4;stroke-dasharray:none;stroke-dashoffset:19.9937;stroke-opacity:1;paint-order:stroke fill markers"
             d="m 147.51443,16.579305 c 0.0109,3.120652 -2.34441,4.263947 -4.5712,2.229835 -0.12989,-0.118648 -0.033,-0.38256 0.0344,-0.509821 1.25353,-2.365788 1.26853,-2.348298 3.69623,-2.337337 0.32794,0.06428 0.75847,0.348216 0.84054,0.617323 z"
             id="path2403-3"
             sodipodi:nodetypes="cssccc" />
          <path
             style="display:inline;fill:#001aad;fill-opacity:1;stroke:none;stroke-width:0.89934;stroke-linecap:round;stroke-linejoin:round;stroke-miterlimit:4;stroke-dasharray:none;stroke-dashoffset:19.9937;stroke-opacity:1;paint-order:stroke fill markers"
             d="m 254.6915,18.856669 c -0.0151,2.918543 3.25543,3.987792 6.34754,2.085419 0.18036,-0.110963 0.0458,-0.357783 -0.0478,-0.476801 -1.74064,-2.212568 -1.76147,-2.19621 -5.13256,-2.185959 -0.45537,0.06012 -1.0532,0.325663 -1.16716,0.577341 z"
             id="path2403-3-3-8"
             sodipodi:nodetypes="cssccc" />
          <path
             style="display:inline;fill:#001aad;fill-opacity:1;stroke:none;stroke-width:14.2105;stroke-linecap:round;stroke-linejoin:round;stroke-miterlimit:4;stroke-dasharray:none;stroke-dashoffset:19.9937;stroke-opacity:1;paint-order:stroke fill markers"
             d="m 61.478151,48.836823 c -3.02363,-0.568372 -2.693179,-0.251606 -3.204587,-3.115583 l 1.602294,0.17803 -0.08896,-1.958353 c 2.361292,0.171905 3.032597,-0.572031 4.005748,1.513279 0.637598,-1.143464 1.178834,-2.575971 3.560661,-2.670499 l 0.445074,1.424264 1.335249,-0.801147 c 0.659297,1.023514 2.047836,2.135942 -0.08896,4.272796 2.051886,0.420606 2.208074,1.113868 2.937543,2.937546 l -1.15722,-0.178035 0.623132,1.513284 c -1.372652,0.811552 -1.81315,0.91264 -3.204588,0.356065 -0.3077,1.008199 -1.171657,2.100609 -2.13641,2.314432 l -0.534103,-1.335251 -0.979176,1.186888 c -1.355215,-0.313235 -0.932878,-1.467464 -0.97912,-2.670494 -1.848007,1.217759 -2.517394,1.205111 -3.827719,0.890166 l 0.890176,-1.86935 -1.691308,1.068197 c -0.322821,-1.685702 0.334928,-3.020936 2.492327,-3.056235 z"
             id="path1830-4"
             sodipodi:nodetypes="ccccccccccccccccccccc" />
          <path
             id="path1877-3-3-8-3-9-2-5"
             style="display:inline;fill:#001aad;fill-opacity:1;stroke:none;stroke-width:5.72691;stroke-linecap:round;stroke-linejoin:round;stroke-miterlimit:4;stroke-dasharray:none;stroke-dashoffset:19.9937;stroke-opacity:1;paint-order:stroke fill markers"
             d="m 245.84766,54.641835 c -0.48483,0.107721 -0.98133,0.827833 -1.13307,1.266791 0.10493,-0.527041 0.0659,-1.311433 -0.22879,-0.732376 -0.29468,0.579031 -0.29817,1.439532 -0.16954,2.182487 0.0106,0.06234 0.0256,0.122908 0.0448,0.182022 -0.0656,0.04821 -0.14382,0.09791 -0.0603,0.236841 0.19128,0.317907 0.59926,0.672684 0.9567,0.881857 0.081,0.04746 0.1676,-0.01667 0.26034,-0.107296 0.99652,0.275208 2.13781,-0.18797 2.78893,-1.031508 0.20052,-0.246653 0.079,-0.274894 -0.17204,-0.204986 l -0.68705,0.27508 c 0.11654,-0.15073 0.37729,-0.582868 0.25254,-0.782962 -0.30643,-0.491844 -0.62703,-0.614111 -1.29359,-0.393869 0.17101,-0.976465 0.37436,-1.823405 -0.46247,-1.785017 -0.0321,0.0016 -0.0643,0.0058 -0.0965,0.01301 z"
             sodipodi:nodetypes="scsscssccccscsss" />
          <path
             id="path1877-3-3-8-1"
             style="display:inline;fill:#001aad;fill-opacity:1;stroke:none;stroke-width:6.26524;stroke-linecap:round;stroke-linejoin:round;stroke-miterlimit:4;stroke-dasharray:none;stroke-dashoffset:19.9937;stroke-opacity:1;paint-order:stroke fill markers"
             d="m 246.78277,24.098413 c 0.23627,0.441197 1.18288,0.711153 1.72512,0.728401 -0.63321,0.05478 -1.53061,0.326773 -0.79356,0.441743 0.73704,0.115004 1.73221,-0.138184 2.56106,-0.485291 0.0696,-0.02902 0.13606,-0.06178 0.20003,-0.09798 0.0707,0.04963 0.1463,0.111237 0.28757,-0.01176 0.32325,-0.28156 0.63916,-0.785611 0.79843,-1.19694 0.0354,-0.0935 -0.0578,-0.158657 -0.18402,-0.222141 0.0882,-1.054891 -0.71018,-2.03096 -1.83506,-2.415046 -0.33133,-0.122047 -0.3359,0.0048 -0.19725,0.229044 l 0.47619,0.588761 c -0.20098,-0.06914 -0.76054,-0.194523 -0.96299,-0.01307 -0.49769,0.445798 -0.56505,0.795241 -0.15683,1.380299 -1.1678,0.124223 -2.19336,0.178268 -1.95603,0.983757 0.009,0.03084 0.0215,0.06099 0.0373,0.09036 z"
             sodipodi:nodetypes="scsscssccccscsss" />
          <path
             id="path1877-3-3-8-3-9-2-5-8"
             style="display:inline;fill:#001aad;fill-opacity:1;stroke:none;stroke-width:7.18436;stroke-linecap:round;stroke-linejoin:round;stroke-miterlimit:4;stroke-dasharray:none;stroke-dashoffset:19.9937;stroke-opacity:1;paint-order:stroke fill markers"
             d="m 261.49488,73.232558 c -0.0655,-0.650826 -0.85421,-1.374151 -1.35382,-1.615712 0.60965,0.187913 1.54171,0.209618 0.8946,-0.233888 -0.64707,-0.4435 -1.66371,-0.528518 -2.55814,-0.427958 -0.0749,0.0083 -0.14848,0.02259 -0.22083,0.04211 -0.0487,-0.09111 -0.0975,-0.199217 -0.27231,-0.101774 -0.39995,0.223111 -0.87095,0.72905 -1.16343,1.181858 -0.0663,0.102676 -0.002,0.223002 0.0943,0.353887 -0.45147,1.291162 -0.0485,2.842642 0.86606,3.781893 0.26614,0.288026 0.3149,0.130165 0.26409,-0.208123 l -0.23772,-0.933775 c 0.1634,0.1681 0.64116,0.553051 0.89346,0.406907 0.62013,-0.358957 0.80524,-0.771216 0.62931,-1.672644 1.13249,0.317227 2.10779,0.665082 2.16836,-0.444356 0.001,-0.04262 9.5e-4,-0.08537 -0.004,-0.128623 z"
             sodipodi:nodetypes="scsscssccccscsss" />
        </g>
      </g>
    </g>
  </g>
  <g
     inkscape:groupmode="layer"
     id="layer5"
     inkscape:label="words"
     style="display:inline"
     transform="translate(-28.435455,30.917755)">
    <g
       id="g1"
       transform="matrix(0.92587968,0,0,0.92587968,10.067695,8.6749664)"
       style="stroke-width:1.08005">
      <text
         xml:space="preserve"
         style="font-style:normal;font-variant:normal;font-weight:normal;font-stretch:normal;font-size:65.7046px;line-height:1.25;font-family:'Playtime With Hot Toddies';-inkscape-font-specification:'Playtime With Hot Toddies';letter-spacing:0px;word-spacing:0px;fill:#ffffff;stroke-width:0.285763"
         x="149.0757"
         y="161.28818"
         id="text1035"><tspan
           sodipodi:role="line"
           id="tspan1033"
           x="149.0757"
           y="161.28818"
           style="font-style:normal;font-variant:normal;font-weight:normal;font-stretch:normal;font-size:65.7046px;font-family:'Playtime With Hot Toddies';-inkscape-font-specification:'Playtime With Hot Toddies';text-align:center;text-anchor:middle;fill:#ffffff;stroke-width:0.285763">Fujima</tspan></text>
      <text
         xml:space="preserve"
         style="font-style:normal;font-variant:normal;font-weight:normal;font-stretch:normal;font-size:21.5735px;line-height:1.25;font-family:'Playtime With Hot Toddies';-inkscape-font-specification:'Playtime With Hot Toddies';letter-spacing:0px;word-spacing:0px;display:inline;fill:#ffffff;stroke-width:0.381175"
         x="172.98692"
         y="180.36621"
         id="text1035-5"><tspan
           sodipodi:role="line"
           id="tspan1033-0"
           x="172.98692"
           y="180.36621"
           style="font-style:normal;font-variant:normal;font-weight:normal;font-stretch:normal;font-size:21.5735px;font-family:'Playtime With Hot Toddies';-inkscape-font-specification:'Playtime With Hot Toddies';text-align:center;text-anchor:middle;fill:#ffffff;stroke-width:0.381175">Hostel</tspan></text>
    </g>
  </g>
</svg>
