<svg xmlns="http://www.w3.org/2000/svg" width="96" height="96" fill="none" viewBox="0 0 96 96">
  <path fill="#F25621" d="M96 82.638C96 90.038 90.038 96 82.638 96H13.362C5.962 96 0 90.038 0 82.638V13.362C0 5.962 5.961 0 13.362 0h69.276C90.038 0 96 5.961 96 13.362v69.276Z"/>
  <path fill="#fff" d="M79.452 15.315h-19.22a1.36 1.36 0 0 0-1.337 1.336v17.165h2.159c.308 0 .514.308.514.617 0 .102 0 .205-.103.308L49.233 47.178c-.41.514-.41 1.13 0 1.644l12.335 12.54c.102.103.102.206.102.308 0 .309-.205.514-.514.617h-2.158v17.165c0 .72.617 1.336 1.336 1.336h19.22a1.36 1.36 0 0 0 1.337-1.336V16.548c-.206-.72-.72-1.233-1.44-1.233ZM34.638 34.74c-.205-.206-.205-.617 0-.822.103-.103.206-.206.411-.206h2.159V16.548a1.36 1.36 0 0 0-1.336-1.336h-19.22a1.36 1.36 0 0 0-1.337 1.336V79.35c0 .72.617 1.336 1.336 1.336h19.22a1.36 1.36 0 0 0 1.337-1.336V62.287h-2.159c-.308 0-.616-.308-.514-.617 0-.102.103-.308.206-.41l12.231-12.438c.411-.514.411-1.13 0-1.644L34.638 34.74Z"/>
</svg>
