<?xml version="1.0" encoding="UTF-8" standalone="no"?>
<svg
   width="210mm"
   height="210mm"
   viewBox="0 0 210 210"
   version="1.1"
   id="svg19591"
   inkscape:version="1.3.2 (091e20e, 2023-11-25, custom)"
   sodipodi:docname="icon.svg"
   inkscape:export-filename="D:\Users\mrgal\Documents\VectorScape\fujima\icon.png"
   inkscape:export-xdpi="61.927616"
   inkscape:export-ydpi="61.927616"
   xmlns:inkscape="http://www.inkscape.org/namespaces/inkscape"
   xmlns:sodipodi="http://sodipodi.sourceforge.net/DTD/sodipodi-0.dtd"
   xmlns="http://www.w3.org/2000/svg"
   xmlns:svg="http://www.w3.org/2000/svg"
   xmlns:rdf="http://www.w3.org/1999/02/22-rdf-syntax-ns#"
   xmlns:cc="http://creativecommons.org/ns#"
   xmlns:dc="http://purl.org/dc/elements/1.1/">
  <defs
     id="defs19585">
    <inkscape:path-effect
       effect="powerstroke"
       id="path-effect2276"
       is_visible="true"
       lpeversion="1"
       offset_points="8.9951978e-05,-0.81125537"
       sort_points="true"
       interpolator_type="CubicBezierJohan"
       interpolator_beta="0.2"
       start_linecap_type="zerowidth"
       linejoin_type="extrp_arc"
       miter_limit="4"
       scale_width="1"
       end_linecap_type="zerowidth" />
    <inkscape:path-effect
       effect="powerstroke"
       id="path-effect2252"
       is_visible="true"
       lpeversion="1"
       offset_points="0,0.57087497"
       sort_points="true"
       interpolator_type="CubicBezierJohan"
       interpolator_beta="0.2"
       start_linecap_type="zerowidth"
       linejoin_type="extrp_arc"
       miter_limit="4"
       scale_width="1"
       end_linecap_type="zerowidth" />
    <inkscape:path-effect
       effect="powerstroke"
       id="path-effect2228"
       is_visible="true"
       lpeversion="1"
       offset_points="0,0.37328474"
       sort_points="true"
       interpolator_type="CubicBezierJohan"
       interpolator_beta="0.2"
       start_linecap_type="zerowidth"
       linejoin_type="extrp_arc"
       miter_limit="4"
       scale_width="1"
       end_linecap_type="zerowidth" />
    <inkscape:path-effect
       effect="powerstroke"
       id="path-effect2126"
       is_visible="true"
       lpeversion="1"
       offset_points="0,0.6547011"
       sort_points="true"
       interpolator_type="CubicBezierJohan"
       interpolator_beta="0.2"
       start_linecap_type="zerowidth"
       linejoin_type="extrp_arc"
       miter_limit="4"
       scale_width="1"
       end_linecap_type="zerowidth" />
    <inkscape:path-effect
       effect="powerstroke"
       id="path-effect2098"
       is_visible="true"
       lpeversion="1"
       offset_points="0,0.59515752"
       sort_points="true"
       interpolator_type="CubicBezierJohan"
       interpolator_beta="0.2"
       start_linecap_type="zerowidth"
       linejoin_type="extrp_arc"
       miter_limit="4"
       scale_width="1"
       end_linecap_type="zerowidth" />
    <inkscape:path-effect
       effect="powerstroke"
       id="path-effect2030"
       is_visible="true"
       lpeversion="1"
       offset_points="0,1.0231415"
       sort_points="true"
       interpolator_type="CubicBezierJohan"
       interpolator_beta="0.2"
       start_linecap_type="zerowidth"
       linejoin_type="extrp_arc"
       miter_limit="4"
       scale_width="1"
       end_linecap_type="zerowidth" />
    <inkscape:path-effect
       effect="powerstroke"
       id="path-effect1982"
       is_visible="true"
       lpeversion="1"
       offset_points="0,0.37328474"
       sort_points="true"
       interpolator_type="CubicBezierJohan"
       interpolator_beta="0.2"
       start_linecap_type="zerowidth"
       linejoin_type="extrp_arc"
       miter_limit="4"
       scale_width="1"
       end_linecap_type="zerowidth" />
    <inkscape:path-effect
       effect="powerstroke"
       id="path-effect1956"
       is_visible="true"
       lpeversion="1"
       offset_points="0,0.37328474"
       sort_points="true"
       interpolator_type="CubicBezierJohan"
       interpolator_beta="0.2"
       start_linecap_type="zerowidth"
       linejoin_type="extrp_arc"
       miter_limit="4"
       scale_width="1"
       end_linecap_type="zerowidth" />
    <inkscape:path-effect
       effect="powerstroke"
       id="path-effect1952"
       is_visible="true"
       lpeversion="1"
       offset_points="0,2.00415"
       sort_points="true"
       interpolator_type="CubicBezierJohan"
       interpolator_beta="0.2"
       start_linecap_type="zerowidth"
       linejoin_type="extrp_arc"
       miter_limit="4"
       scale_width="1"
       end_linecap_type="zerowidth" />
    <inkscape:path-effect
       effect="powerstroke"
       id="path-effect1948"
       is_visible="true"
       lpeversion="1"
       offset_points="0,2.00415"
       sort_points="true"
       interpolator_type="CubicBezierJohan"
       interpolator_beta="0.2"
       start_linecap_type="zerowidth"
       linejoin_type="extrp_arc"
       miter_limit="4"
       scale_width="1"
       end_linecap_type="zerowidth" />
    <inkscape:path-effect
       effect="powerstroke"
       id="path-effect1944"
       is_visible="true"
       lpeversion="1"
       offset_points="0,2.00415"
       sort_points="true"
       interpolator_type="CubicBezierJohan"
       interpolator_beta="0.2"
       start_linecap_type="zerowidth"
       linejoin_type="extrp_arc"
       miter_limit="4"
       scale_width="1"
       end_linecap_type="zerowidth" />
    <inkscape:path-effect
       effect="powerstroke"
       id="path-effect1734"
       is_visible="true"
       lpeversion="1"
       offset_points="0,-1.6110718"
       sort_points="true"
       interpolator_type="CubicBezierJohan"
       interpolator_beta="0.2"
       start_linecap_type="zerowidth"
       linejoin_type="extrp_arc"
       miter_limit="4"
       scale_width="1"
       end_linecap_type="zerowidth" />
    <inkscape:path-effect
       effect="powerstroke"
       id="path-effect1732"
       is_visible="true"
       lpeversion="1"
       offset_points="0,-1.4892499"
       sort_points="true"
       interpolator_type="CubicBezierJohan"
       interpolator_beta="0.2"
       start_linecap_type="zerowidth"
       linejoin_type="extrp_arc"
       miter_limit="4"
       scale_width="1"
       end_linecap_type="zerowidth" />
    <inkscape:path-effect
       effect="powerstroke"
       id="path-effect1730"
       is_visible="true"
       lpeversion="1"
       offset_points="0,-1.1280283"
       sort_points="true"
       interpolator_type="CubicBezierJohan"
       interpolator_beta="0.2"
       start_linecap_type="zerowidth"
       linejoin_type="extrp_arc"
       miter_limit="4"
       scale_width="1"
       end_linecap_type="zerowidth" />
    <inkscape:path-effect
       effect="powerstroke"
       id="path-effect1728"
       is_visible="true"
       lpeversion="1"
       offset_points="0.0080845055,2.0041458"
       sort_points="true"
       interpolator_type="CubicBezierJohan"
       interpolator_beta="0.2"
       start_linecap_type="zerowidth"
       linejoin_type="extrp_arc"
       miter_limit="4"
       scale_width="1"
       end_linecap_type="zerowidth" />
    <inkscape:path-effect
       effect="powerstroke"
       id="path-effect1606"
       is_visible="true"
       lpeversion="1"
       offset_points="0,-1.6110718"
       sort_points="true"
       interpolator_type="CubicBezierJohan"
       interpolator_beta="0.2"
       start_linecap_type="zerowidth"
       linejoin_type="extrp_arc"
       miter_limit="4"
       scale_width="1"
       end_linecap_type="zerowidth" />
    <inkscape:path-effect
       effect="powerstroke"
       id="path-effect1582"
       is_visible="true"
       lpeversion="1"
       offset_points="0,-1.4892499"
       sort_points="true"
       interpolator_type="CubicBezierJohan"
       interpolator_beta="0.2"
       start_linecap_type="zerowidth"
       linejoin_type="extrp_arc"
       miter_limit="4"
       scale_width="1"
       end_linecap_type="zerowidth" />
    <inkscape:path-effect
       effect="powerstroke"
       id="path-effect1558"
       is_visible="true"
       lpeversion="1"
       offset_points="0,-1.1280283"
       sort_points="true"
       interpolator_type="CubicBezierJohan"
       interpolator_beta="0.2"
       start_linecap_type="zerowidth"
       linejoin_type="extrp_arc"
       miter_limit="4"
       scale_width="1"
       end_linecap_type="zerowidth" />
    <inkscape:path-effect
       effect="powerstroke"
       id="path-effect1497"
       is_visible="true"
       lpeversion="1"
       offset_points="0,3.6737285"
       sort_points="true"
       interpolator_type="CubicBezierJohan"
       interpolator_beta="0.2"
       start_linecap_type="zerowidth"
       linejoin_type="extrp_arc"
       miter_limit="4"
       scale_width="1"
       end_linecap_type="zerowidth" />
    <inkscape:path-effect
       effect="powerstroke"
       id="path-effect1493"
       is_visible="true"
       lpeversion="1"
       offset_points="0,1"
       sort_points="true"
       interpolator_type="CubicBezierJohan"
       interpolator_beta="0.2"
       start_linecap_type="zerowidth"
       linejoin_type="extrp_arc"
       miter_limit="4"
       scale_width="1"
       end_linecap_type="zerowidth" />
    <inkscape:path-effect
       effect="powerstroke"
       id="path-effect1489"
       is_visible="true"
       lpeversion="1"
       offset_points="0,1"
       sort_points="true"
       interpolator_type="CubicBezierJohan"
       interpolator_beta="0.2"
       start_linecap_type="zerowidth"
       linejoin_type="extrp_arc"
       miter_limit="4"
       scale_width="1"
       end_linecap_type="zerowidth" />
    <inkscape:path-effect
       effect="powerstroke"
       id="path-effect1956-6"
       is_visible="true"
       lpeversion="1"
       offset_points="0,0.37328474"
       sort_points="true"
       interpolator_type="CubicBezierJohan"
       interpolator_beta="0.2"
       start_linecap_type="zerowidth"
       linejoin_type="extrp_arc"
       miter_limit="4"
       scale_width="1"
       end_linecap_type="zerowidth"
       not_jump="false"
       message="&lt;b&gt;Ctrl + click&lt;/b&gt; on existing node and move it" />
    <clipPath
       clipPathUnits="userSpaceOnUse"
       id="clipPath4">
      <circle
         style="display:inline;fill:#ffffff;stroke-width:0.4;stroke-linecap:round;stroke-linejoin:round"
         id="circle5"
         cx="105"
         cy="105"
         r="105" />
    </clipPath>
  </defs>
  <sodipodi:namedview
     id="base"
     pagecolor="#ffffff"
     bordercolor="#666666"
     borderopacity="1.0"
     inkscape:pageopacity="0.0"
     inkscape:pageshadow="2"
     inkscape:zoom="0.7593161"
     inkscape:cx="368.75288"
     inkscape:cy="525.47286"
     inkscape:document-units="mm"
     inkscape:current-layer="layer4"
     inkscape:document-rotation="0"
     showgrid="false"
     inkscape:window-width="1350"
     inkscape:window-height="1032"
     inkscape:window-x="326"
     inkscape:window-y="39"
     inkscape:window-maximized="0"
     inkscape:pagecheckerboard="true"
     inkscape:snap-global="false"
     borderlayer="true"
     inkscape:showpageshadow="2"
     inkscape:deskcolor="#d1d1d1" />
  <metadata
     id="metadata19588">
    <rdf:RDF>
      <cc:Work
         rdf:about="">
        <dc:format>image/svg+xml</dc:format>
        <dc:type
           rdf:resource="http://purl.org/dc/dcmitype/StillImage" />
      </cc:Work>
    </rdf:RDF>
  </metadata>
  <g
     inkscape:groupmode="layer"
     id="layer4"
     inkscape:label="flowers"
     style="display:inline">
    <g
       id="g1"
       mask="none"
       clip-path="url(#clipPath4)">
      <g
         id="g194"
         transform="translate(4.862217,-5.9236419)"
         mask="none"
         style="display:inline">
        <path
           id="path898"
           style="display:inline;fill:#ffffff;fill-opacity:1;stroke:none;stroke-width:1.01015;stroke-linecap:round;stroke-linejoin:round;stroke-dashoffset:19.9937;paint-order:stroke fill markers"
           d="m 121.68265,76.229934 c -1.31372,2.09e-4 -2.62763,5.29e-4 -3.94136,5.29e-4 -8.545,0.108823 -17.09811,0.298913 -25.623754,0.900203 -2.28,0.299632 -4.20098,1.744612 -6.209959,2.756937 -9.840169,5.802852 -19.230858,12.326151 -28.707291,18.696016 -2.743867,1.893291 -5.565159,3.962301 -7.301362,6.868831 -0.687211,1.12244 0.04758,2.4587 1.117245,3.00188 0.187066,0.12201 0.37747,0.23376 0.569473,0.33952 -0.03873,0.0397 -0.07757,0.0793 -0.115239,0.11989 -0.68494,0.76996 -1.34261,1.61117 -1.658813,2.60604 -0.21009,0.64237 -0.169127,1.38026 0.205155,1.95544 0.466738,0.72862 1.205849,1.23235 1.95802,1.63142 1.383887,0.71045 2.96174,0.91716 4.498435,0.96067 2.382621,0.0406 4.752065,-0.32127 7.079155,-0.80306 4.068998,-0.86601 8.035094,-2.14881 11.954824,-3.5295 1.525601,-0.54018 3.043071,-1.10307 4.556311,-1.6769 0.0452,-0.0303 0.06571,-0.0716 0.07752,-0.11678 4.046219,-1.52943 8.072844,-3.11543 12.153264,-4.53616 3.0562,-1.1038 6.383351,-1.11937 9.569436,-0.7798 5.42276,0.97113 10.00995,4.27771 14.68128,6.99751 3.36095,1.9931 7.2057,3.90243 11.22877,3.36206 2.19116,-0.47319 4.30295,-1.66791 5.70197,-3.43596 0.87365,-1.26376 0.71217,-3.0415 1.79783,-4.1553 0.85844,-0.33387 1.70806,0.39247 2.53369,0.57154 9.58706,3.74174 19.19153,7.50845 29.09848,10.33012 3.25187,0.95159 6.99537,1.73406 10.12187,0.21911 0.65478,-0.32523 2.62586,-0.98139 2.04173,-1.78594 -0.52941,-1.10219 -1.22431,-3.03129 -3.76928,-2.93161 -0.57139,-0.30271 -1.15074,-0.58965 -1.73322,-0.87023 0.71532,-0.0705 1.42791,-0.16084 2.1301,-0.25011 1.08108,-0.37912 2.46993,-0.65061 3.09955,-1.69912 0.18242,-1.20344 -1.23711,-1.85898 -2.04639,-2.44585 -3.79988,-2.11666 -7.9014,-3.62431 -11.77964,-5.58829 -14.15138,-6.732934 -27.78555,-14.697639 -40.01048,-24.54683 -1.06784,-0.736031 -2.072,-1.723858 -3.27732,-2.166276 z" />
        <path
           id="rect900"
           style="display:inline;fill:#001aad;fill-opacity:1;stroke:none;stroke-width:2;stroke-linecap:round;stroke-linejoin:round;stroke-dashoffset:19.9937;stroke-opacity:1;paint-order:stroke fill markers"
           d="m 119.57802,75.261946 c -6.86546,-0.0373 -25.960232,0.599879 -28.350722,0.997355 -2.732,0.454257 -14.5362,7.827491 -36.196756,22.662184 C 33.369983,113.75618 -9.5299607,130.3989 -67.155796,135.88358 L -70.421674,254.12494 299.967,244.77867 297.59093,142.6873 C 251.72523,137.47181 190.84998,114.94816 160.89747,99.900234 130.94495,84.852319 124.86522,75.606161 121.68694,75.32189 c -0.39728,-0.03553 -1.12814,-0.05461 -2.10892,-0.05994 z m 0.40876,0.927076 c 0.66315,-0.0041 1.3231,0.02033 1.95596,0.161748 2.18493,1.12463 3.96244,2.889168 5.94847,4.316531 11.76365,9.224407 24.9392,16.457062 38.39766,22.876119 2.96889,1.48613 6.78733,2.26061 9.72004,3.81432 0.8059,0.87854 2.59416,2.23923 3.28359,3.25141 0.58414,0.80456 -1.30575,1.63183 -1.96053,1.95706 -3.1265,1.51495 -7.17421,0.66679 -10.42609,-0.28481 -9.90695,-2.82166 -19.51142,-6.58839 -29.09848,-10.33013 -0.82564,-0.17907 -1.67524,-0.90541 -2.53369,-0.57154 -1.08566,1.11379 -0.92417,2.89155 -1.79783,4.1553 -1.39902,1.76807 -3.51081,2.96277 -5.70198,3.43598 -4.02306,0.54037 -7.86782,-1.36897 -11.22877,-3.36208 -4.67134,-2.71978 -9.2585,-6.026373 -14.68127,-6.997505 -3.186092,-0.339569 -6.513232,-0.324004 -9.569442,0.779798 -8.60224,2.995147 -16.68008,7.085287 -25.49634,9.457677 -3.98925,1.08594 -8.50416,1.77341 -12.641459,1.28571 -1.202638,-0.25542 -4.262599,-1.10088 -4.600679,-2.48512 -0.224268,-2.08637 0.584566,-3.08877 1.572661,-4.83648 0.526356,-1.31563 3.481352,-2.79629 4.530035,-3.612695 9.905952,-6.687479 20.047012,-13.255923 30.322992,-19.369139 1.98826,-1.033646 3.90807,-2.483499 6.19807,-2.726966 8.596902,-0.583477 17.217402,-0.778478 25.832012,-0.904853 0.64556,0.0265 1.31193,-0.0062 1.97507,-0.01033 z"
           sodipodi:nodetypes="sssccccsssssccccccccccccccccccccccss" />
        <path
           style="display:inline;fill:none;fill-opacity:0.33871;stroke:#001aad;stroke-width:2;stroke-linecap:round;stroke-linejoin:round;stroke-dashoffset:19.9937;stroke-opacity:1;paint-order:stroke fill markers"
           d="M 297.59101,142.68737 C 251.7253,137.47188 190.85007,114.94819 160.89755,99.900263 130.94504,84.852345 124.86546,75.606063 121.68718,75.321792 118.50891,75.037518 93.959458,75.805181 91.227468,76.259438 88.495468,76.713696 76.691048,84.08664 55.03049,98.921331 33.369932,113.75603 -9.5301787,130.39912 -67.156018,135.8838"
           id="path71"
           sodipodi:nodetypes="czzzzc" />
        <path
           style="display:inline;fill:none;fill-opacity:0.33871;stroke:#001aad;stroke-width:2;stroke-linecap:round;stroke-linejoin:round;stroke-dashoffset:19.9937;stroke-opacity:1;paint-order:stroke fill markers"
           d="m 54.014076,99.614166 c -8.929688,7.152884 -4.365243,9.162394 -2.597893,10.182774 7.988565,4.6122 29.249225,-5.26454 40.080355,-9.19059 15.046722,-5.454101 21.920122,7.35318 33.060362,9.30581 4.17797,0.7323 7.48401,-1.44775 9.2208,-3.20725 1.73679,-1.75948 1.36877,-4.92827 2.17058,-4.52737 0.80181,0.40091 27.02774,10.90062 34.39277,11.7923 5.39002,0.65256 14.90424,-2.23208 5.56255,-7.06595"
           id="path896"
           sodipodi:nodetypes="cssssssc" />
      </g>
      <g
         id="g234"
         transform="translate(-26.210353,2.238536)">
        <path
           style="opacity:1;fill:#001aad;fill-opacity:1;fill-rule:nonzero;stroke:none;stroke-width:10;stroke-linecap:round;stroke-linejoin:round;stroke-miterlimit:4;stroke-dasharray:none;stroke-dashoffset:19.9937;stroke-opacity:1;paint-order:stroke fill markers"
           d="m 324.5504,-5.4878157 c 0,0 -0.64772,-3.616178 -0.64772,-3.616178 -23.08362,4.1346588 -40.02285,9.42880015 -65.09649,17.8680716 -8.51824,2.8670651 -17.47769,5.8691081 -26.37047,8.2650081 -8.37998,2.257741 -17.17671,4.118508 -26.79262,5.094721 -1.60509,0.20311 -3.70831,0.401004 -6.25591,0.609152 -2.51228,0.205262 -5.40643,0.416591 -8.65645,0.653737 -6.38932,0.466216 -14.08237,1.026842 -22.27572,1.799794 -8.22235,0.77569 -16.89677,1.760057 -25.36957,3.07576 -8.65459,1.343931 -16.93594,3.008475 -24.28542,5.102635 -22.63018,6.341507 -33.434805,9.354593 -41.890655,11.789717 -4.576542,1.317957 -7.583288,2.216603 -9.926136,2.945341 -2.900372,0.902153 -4.710696,1.523827 -6.127292,2.007517 1.438486,-0.491164 3.235468,-1.006229 6.199588,-1.750011 2.462288,-0.617857 5.341835,-1.300905 10.057778,-2.42859 7.480603,-1.788776 20.541236,-4.922952 42.246677,-10.474198 7.29396,-1.829498 15.51914,-3.231555 24.12987,-4.309788 8.42794,-1.055344 17.0621,-1.780163 25.25334,-2.295974 8.17118,-0.514548 15.82381,-0.81617 22.22382,-1.031895 2.13177,-0.07185 6.56189,-0.206687 8.69366,-0.278542 2.55842,-0.08287 4.7405,-0.16093 6.4392,-0.250857 9.99178,-0.758087 19.13246,-2.443967 27.79704,-4.545591 9.17854,-2.226287 18.35278,-5.0625 26.9325,-7.75162 25.63679,-8.0352713 41.31071,-12.7319647 64.3687,-16.8620317 0,0 -0.64772,-3.616178 -0.64772,-3.616178 z"
           id="path1495"
           sodipodi:nodetypes="cssc"
           inkscape:original-d="M 324.5504,-5.4878157 C 271.86233,3.949491 244.17785,21.317177 205.87149,24.705706 192.51079,25.887575 148.76967,26.454451 119.08001,34.409773 77.685739,45.501337 67.699203,47.770864 60.855947,50.10746"
           inkscape:path-effect="#path-effect1497" />
        <g
           id="g3">
          <g
             id="g2">
            <path
               id="path1877-3-0"
               style="display:inline;fill:#001aad;fill-opacity:1;stroke:none;stroke-width:10;stroke-linecap:round;stroke-linejoin:round;stroke-miterlimit:4;stroke-dasharray:none;stroke-dashoffset:19.9937;stroke-opacity:1;paint-order:stroke fill markers"
               d="m 153.0171,12.558883 c -0.82668,0.251662 -1.34841,1.500997 -1.39131,2.238761 -0.0896,-0.87359 -0.57839,-2.142905 -0.80725,-1.154835 -0.22886,0.988067 0.22304,2.387878 0.85328,3.57568 0.0529,0.09965 0.11242,0.195759 0.17853,0.288969 -0.0939,0.08859 -0.21011,0.181911 0.0163,0.394645 0.51816,0.486747 1.45097,0.999282 2.21415,1.283008 0.17309,0.06435 0.29671,-0.05344 0.41751,-0.21555 1.96362,0.290226 3.79796,-0.643062 4.53587,-2.11749 0.23425,-0.43273 -0.002,-0.459489 -0.42279,-0.306217 l -1.10638,0.55557 c 0.1324,-0.263504 0.37751,-1.007338 0.0437,-1.313008 -0.82068,-0.751438 -1.47037,-0.899651 -2.56849,-0.436305 -0.20826,-1.614831 -0.28858,-3.024124 -1.79396,-2.82963 -0.0578,0.0075 -0.11403,0.0196 -0.16914,0.03639 z"
               sodipodi:nodetypes="scsscssccccscsss" />
            <path
               style="display:inline;fill:#001aad;fill-opacity:1;fill-rule:nonzero;stroke:none;stroke-width:10;stroke-linecap:round;stroke-linejoin:round;stroke-miterlimit:4;stroke-dasharray:none;stroke-dashoffset:19.9937;stroke-opacity:1;paint-order:stroke fill markers"
               d="m 143.6728,29.443102 c 0,0 0.3861,1.059893 0.3861,1.059893 -5.20666,1.896704 -11.29535,4.604098 -17.20965,8.744884 -4.33683,3.036351 -7.75786,6.272207 -10.43362,9.437661 -3.03027,3.584833 -4.74971,6.643508 -5.6565,8.433205 -0.90679,1.789697 -1.0657,2.305002 -1.0657,2.305002 l 0,0 c 0,0 0.0203,-0.550589 0.74329,-2.447528 0.70663,-1.854138 2.20571,-5.130043 5.09593,-8.992684 2.54039,-3.395101 5.90276,-6.904155 10.24995,-10.198752 5.90136,-4.472464 12.19421,-7.467266 17.5041,-9.401574 0,0 0.3861,1.059893 0.3861,1.059893 z"
               id="path1495-5"
               sodipodi:nodetypes="cc"
               inkscape:original-d="m 143.6728,29.443102 c -28.55727,10.40297 -33.97937,29.980645 -33.97937,29.980645"
               inkscape:path-effect="#path-effect1558" />
            <path
               style="display:inline;fill:#001aad;fill-opacity:1;fill-rule:nonzero;stroke:none;stroke-width:10;stroke-linecap:round;stroke-linejoin:round;stroke-miterlimit:4;stroke-dasharray:none;stroke-dashoffset:19.9937;stroke-opacity:1;paint-order:stroke fill markers"
               d="m 187.28032,25.802133 c 0,0 -0.002,1.489248 -0.002,1.489248 -5.33858,-0.0077 -11.98355,-0.49797 -18.98316,-2.057426 -6.99762,-1.559012 -12.89996,-3.859977 -17.68921,-6.439905 -4.64051,-2.499804 -7.60756,-4.92148 -9.14884,-6.350988 -1.60375,-1.487464 -1.83401,-1.95621 -1.83401,-1.95621 0,0 0.36901,0.348391 2.12762,1.595122 1.72731,1.224541 4.84373,3.278103 9.51456,5.376728 4.85345,2.18068 10.67013,4.076234 17.52683,5.31177 6.89473,1.242392 13.24584,1.534821 18.49053,1.542413 0,0 -0.002,1.489248 -0.002,1.489248 z"
               id="path1495-5-9"
               sodipodi:nodetypes="cc"
               inkscape:original-d="M 187.28032,25.802133 C 153.90385,25.753822 139.62294,10.486852 139.62294,10.486852"
               inkscape:path-effect="#path-effect1582" />
            <path
               style="display:inline;fill:#001aad;fill-opacity:1;fill-rule:nonzero;stroke:none;stroke-width:10.378;stroke-linecap:round;stroke-linejoin:round;stroke-miterlimit:4;stroke-dasharray:none;stroke-dashoffset:19.9937;stroke-opacity:1;paint-order:stroke fill markers"
               d="m 234.23005,19.276256 c 0,0 0.46199,1.543412 0.46199,1.543412 -5.9205,1.772166 -12.96621,4.611004 -20.09201,9.711036 -5.23377,3.745878 -9.52618,8.012265 -13.00976,12.35104 -3.94291,4.910871 -6.37542,9.303171 -7.69676,11.897062 -1.35541,2.660771 -1.60357,3.368834 -1.60357,3.368834 0,0 0.0592,-0.759446 1.14371,-3.573773 1.03308,-2.680857 3.14192,-7.365152 6.86875,-12.660081 3.27415,-4.65178 7.47752,-9.318202 12.74565,-13.451583 7.16153,-5.618946 14.5493,-8.882294 20.72001,-10.729359 0,0 0.46199,1.543412 0.46199,1.543412 z"
               id="path1495-5-9-7"
               sodipodi:nodetypes="cc"
               inkscape:original-d="M 234.23005,19.276256 C 201.39362,29.105101 192.28994,58.14764 192.28994,58.14764"
               inkscape:path-effect="#path-effect1606" />
            <path
               style="display:inline;fill:#001aad;fill-opacity:1;stroke:none;stroke-width:5.31178;stroke-linecap:round;stroke-linejoin:round;stroke-miterlimit:4;stroke-dasharray:none;stroke-dashoffset:19.9937;stroke-opacity:1;paint-order:stroke fill markers"
               d="m 111.20649,54.980953 c 0.32383,0.09224 0.61834,0.277668 0.74713,0.588769 0.056,0.135174 -0.1386,0.374448 -0.1386,0.374448 3.12337,2.221008 2.23251,5.313832 0.66158,7.567945 -0.96195,0.734183 -2.74383,-0.766331 -2.93371,-1.493022 -1.87514,1.993882 -4.10395,-0.100658 -2.93038,-2.186769 -2.44697,0.460566 -2.80916,-1.487706 -2.42046,-2.139119 1.53093,-2.565642 4.05879,-3.34369 6.16761,-2.571564 0,0 0.10541,-0.223851 0.21074,-0.262607 0.20261,-0.07455 0.44994,0.06888 0.63609,0.121915 z"
               id="path1535-7"
               sodipodi:nodetypes="ssccccscsss" />
            <path
               style="display:inline;fill:#001aad;fill-opacity:1;stroke:none;stroke-width:5.31178;stroke-linecap:round;stroke-linejoin:round;stroke-miterlimit:4;stroke-dasharray:none;stroke-dashoffset:19.9937;stroke-opacity:1;paint-order:stroke fill markers"
               d="m 142.65845,12.748726 c -0.15126,0.30083 -0.38854,0.555412 -0.71826,0.623672 -0.14326,0.02971 -0.34187,-0.20626 -0.34187,-0.20626 -2.76656,2.65226 -5.63787,1.198049 -7.55797,-0.767162 -0.54109,-1.082409 1.26654,-2.5518132 2.01593,-2.602267 -1.60751,-2.2153159 0.86731,-4.01252 2.69678,-2.4690974 0.006,-2.4899296 1.98739,-2.4809136 2.5545,-1.9771163 2.23361,1.9842513 2.52458,4.6130866 1.37125,6.5400357 0,0 0.20015,0.145459 0.2185,0.256183 0.0353,0.212984 -0.15191,0.429085 -0.23886,0.602012 z"
               id="path1535-7-0"
               sodipodi:nodetypes="ssccccscsss" />
            <path
               style="display:inline;fill:#001aad;fill-opacity:1;stroke:none;stroke-width:5.42315;stroke-linecap:round;stroke-linejoin:round;stroke-miterlimit:4;stroke-dasharray:none;stroke-dashoffset:19.9937;stroke-opacity:1;paint-order:stroke fill markers"
               d="m 194.54624,52.725057 c -0.25666,-0.25748 -0.58074,-0.44903 -0.92775,-0.436251 -0.1508,0.0055 -0.25959,0.283953 -0.25959,0.283953 -3.66395,-1.924611 -5.94494,0.188355 -7.1112,2.571322 -0.13745,1.188005 2.16118,2.188015 2.91204,2.056686 -0.77021,2.551988 2.29926,3.711465 3.52948,1.762462 0.90626,2.431451 2.84025,1.944992 3.21243,1.316053 1.46585,-2.477135 0.79942,-5.115832 -1.02507,-6.720603 0,0 0.14305,-0.19037 0.12094,-0.302972 -0.0425,-0.216613 -0.30371,-0.38263 -0.45125,-0.530651 z"
               id="path1535-7-1"
               sodipodi:nodetypes="ssccccscsss" />
            <path
               style="display:inline;fill:#001aad;fill-opacity:1;stroke:none;stroke-width:10;stroke-linecap:round;stroke-linejoin:round;stroke-miterlimit:4;stroke-dasharray:none;stroke-dashoffset:19.9937;stroke-opacity:1;paint-order:stroke fill markers"
               d="m 116.22927,45.837593 c -2.12774,-0.399965 -1.8952,-0.177056 -2.25508,-2.192447 l 1.12754,0.12528 -0.0626,-1.3781 c 1.66165,0.12097 2.13405,-0.40254 2.81886,1.0649 0.44868,-0.80466 0.82955,-1.81272 2.50565,-1.87924 l 0.3132,1.00226 0.93962,-0.56377 c 0.46395,0.72025 1.44107,1.50307 -0.0626,3.006782 1.44392,0.295982 1.55383,0.783833 2.06716,2.067162 l -0.81434,-0.125284 0.4385,1.064904 c -0.96594,0.571092 -1.27592,0.642228 -2.25508,0.250564 -0.21653,0.709473 -0.8245,1.478206 -1.5034,1.628674 l -0.37585,-0.939621 -0.68905,0.835218 c -0.95367,-0.220425 -0.65647,-1.03266 -0.68901,-1.879237 -1.30045,0.856942 -1.7715,0.848041 -2.69358,0.626413 l 0.62642,-1.315468 -1.19018,0.751694 c -0.22717,-1.186235 0.23569,-2.125844 1.75386,-2.150684 z"
               id="path1830-0"
               sodipodi:nodetypes="ccccccccccccccccccccc" />
            <path
               id="path1877-3-5"
               style="display:inline;fill:#001aad;fill-opacity:1;stroke:none;stroke-width:9.20522;stroke-linecap:round;stroke-linejoin:round;stroke-miterlimit:4;stroke-dasharray:none;stroke-dashoffset:19.9937;stroke-opacity:1;paint-order:stroke fill markers"
               d="m 191.05515,40.794264 c 0.83399,0.321169 2.22314,-0.05983 2.83981,-0.431065 -0.62241,0.516967 -1.25128,1.465935 -0.29376,1.063274 0.95753,-0.402657 1.71802,-1.401101 2.17381,-2.384407 0.0378,-0.08256 0.0683,-0.166827 0.0915,-0.253113 0.14222,0.0044 0.3053,0.01849 0.29971,-0.220244 -0.0128,-0.546267 -0.32367,-1.334985 -0.68528,-1.907693 -0.082,-0.129895 -0.27015,-0.135014 -0.49119,-0.114857 -1.27838,-1.238166 -3.42553,-1.750154 -5.1588,-1.367884 -0.5223,0.102438 -0.36181,0.247193 0.0824,0.397045 l 1.28924,0.312735 c -0.31017,0.06803 -1.08694,0.330994 -1.07239,0.678699 0.0357,0.854758 0.41738,1.292355 1.62732,1.649898 -1.11774,0.979175 -2.1711,1.777787 -0.86107,2.503822 0.0504,0.02788 0.1031,0.0524 0.15868,0.07379 z"
               sodipodi:nodetypes="scsscssccccscsss" />
            <path
               style="display:inline;fill:#001aad;fill-opacity:1;fill-rule:nonzero;stroke:none;stroke-width:10;stroke-linecap:round;stroke-linejoin:round;stroke-miterlimit:4;stroke-dasharray:none;stroke-dashoffset:19.9937;stroke-opacity:1;paint-order:stroke fill markers"
               d="m 209.56447,33.008718 c 0,0 -0.32748,-0.496962 -0.32748,-0.496962 -0.86663,0.571075 -2.17152,1.318974 -4.34758,2.173244 -1.59705,0.626968 -3.35387,1.188903 -5.14172,1.684092 -1.74488,0.483289 -3.3538,0.856887 -4.5051,1.106199 -0.65778,0.142442 -1.1989,0.251364 -1.57211,0.322804 -0.22405,0.04289 -0.40351,0.07535 -0.53971,0.0982 -0.16881,0.02831 -0.27797,0.04305 -0.34714,0.0478 0.0696,-0.0048 0.17892,-0.01001 0.35022,-0.02126 0.1389,-0.0091 0.31945,-0.02227 0.5481,-0.04224 0.38773,-0.03386 0.92183,-0.08808 1.60024,-0.173654 1.18586,-0.14959 2.80087,-0.394145 4.60395,-0.759015 1.82546,-0.3694 3.6579,-0.824811 5.32445,-1.363224 2.257,-0.729165 3.741,-1.459363 4.68136,-2.079019 z"
               id="path1954-6"
               sodipodi:nodetypes="cc"
               inkscape:original-d="m 209.56447,33.008718 c -4.91923,3.241567 -15.48064,4.84608 -16.78084,4.935375"
               inkscape:path-effect="#path-effect2098" />
            <path
               id="path1877-3-5-9"
               style="display:inline;fill:#001aad;fill-opacity:1;stroke:none;stroke-width:10.1262;stroke-linecap:round;stroke-linejoin:round;stroke-miterlimit:4;stroke-dasharray:none;stroke-dashoffset:19.9937;stroke-opacity:1;paint-order:stroke fill markers"
               d="m 102.70659,28.618951 c 0.95385,-0.128981 2.14646,0.678886 2.58847,1.263167 -0.38459,-0.748577 -0.58861,-1.981264 0.17285,-1.268059 0.76148,0.713212 1.07272,2.037378 1.09279,3.260763 0.001,0.102622 -0.005,0.20506 -0.0201,0.307782 0.14087,0.03423 0.30632,0.06341 0.1976,0.328426 -0.24903,0.606296 -0.89375,1.40141 -1.49477,1.941323 -0.1363,0.12246 -0.32237,0.07637 -0.52965,-0.007 -1.78472,1.030477 -4.10426,1.010959 -5.632581,0.106932 -0.466054,-0.25818 -0.246611,-0.375614 0.252201,-0.420668 l 1.39505,0.0058 c -0.27364,-0.161359 -0.91893,-0.668822 -0.754311,-1.053038 0.404611,-0.944527 0.966861,-1.328026 2.303791,-1.394109 -0.66867,-1.401015 -1.35252,-2.582705 0.24162,-3.032655 0.0614,-0.01722 0.12342,-0.03011 0.18696,-0.0387 z"
               sodipodi:nodetypes="scsscssccccscsss" />
            <path
               style="display:inline;fill:#001aad;fill-opacity:1;fill-rule:nonzero;stroke:none;stroke-width:11.0005;stroke-linecap:round;stroke-linejoin:round;stroke-miterlimit:4;stroke-dasharray:none;stroke-dashoffset:19.9937;stroke-opacity:1;paint-order:stroke fill markers"
               d="m 120.55406,33.851774 c 0,0 -0.18225,-0.628823 -0.18225,-0.628823 -1.32786,0.38485 -3.15544,0.799768 -5.62167,0.913568 -1.81776,0.08388 -3.678,-0.01185 -5.48411,-0.252398 -1.78301,-0.237468 -3.3252,-0.591082 -4.48906,-0.938514 -0.66448,-0.198359 -1.1966,-0.39169 -1.60201,-0.563501 -0.2386,-0.101115 -0.43407,-0.195038 -0.59233,-0.280362 -0.19488,-0.105065 -0.33341,-0.197094 -0.43052,-0.275476 0.0969,0.07819 0.22943,0.17884 0.41547,0.300729 0.15131,0.09913 0.33784,0.212204 0.56748,0.337588 0.39102,0.213499 0.90434,0.461053 1.55627,0.724942 1.14238,0.462413 2.66487,0.955181 4.46268,1.339641 1.81342,0.387798 3.72372,0.625762 5.61069,0.658134 2.55017,0.04375 4.55649,-0.296563 5.97161,-0.706705 z"
               id="path1954-6-3"
               sodipodi:nodetypes="cc"
               inkscape:original-d="m 120.55406,33.851774 c -7.52954,2.182269 -16.58725,-0.560778 -18.40195,-2.025506"
               inkscape:path-effect="#path-effect2126" />
            <path
               id="path1877-3-0-4"
               style="display:inline;fill:#001aad;fill-opacity:1;stroke:none;stroke-width:8.7235;stroke-linecap:round;stroke-linejoin:round;stroke-miterlimit:4;stroke-dasharray:none;stroke-dashoffset:19.9937;stroke-opacity:1;paint-order:stroke fill markers"
               d="m 133.76431,38.625675 c 0.0151,-0.662794 -1.00501,-1.315577 -1.68852,-1.505793 0.85228,0.121846 2.20025,0.03488 1.33727,-0.346077 -0.863,-0.380963 -2.32292,-0.349206 -3.63719,-0.140547 -0.11026,0.01754 -0.21921,0.04068 -0.32744,0.06932 -0.0549,-0.08817 -0.10753,-0.193819 -0.37761,-0.07287 -0.61804,0.276868 -1.3872,0.853498 -1.88846,1.354429 -0.11367,0.113615 -0.0403,0.229959 0.0759,0.353764 -0.87443,1.383426 -0.55406,2.934734 0.61252,3.795085 0.33698,0.265524 0.43448,0.09734 0.41842,-0.245463 l -0.18632,-0.934087 c 0.20834,0.154143 0.83575,0.494557 1.22642,0.314529 0.96046,-0.442697 1.29906,-0.889202 1.19732,-1.79739 1.58845,0.193869 2.94371,0.437775 3.22035,-0.712489 0.011,-0.04405 0.0163,-0.0882 0.0174,-0.132368 z"
               sodipodi:nodetypes="scsscssccccscsss" />
            <path
               style="display:inline;fill:#001aad;fill-opacity:1;stroke:none;stroke-width:10;stroke-linecap:round;stroke-linejoin:round;stroke-miterlimit:4;stroke-dasharray:none;stroke-dashoffset:19.9937;stroke-opacity:1;paint-order:stroke fill markers"
               d="m 203.54372,42.185986 c 1.06212,-1.886567 0.77634,-1.737936 2.80054,-1.431482 l -0.48076,1.027572 1.32519,0.383311 c -0.64822,1.534771 -0.30416,2.150277 -1.91379,2.327522 0.61793,0.683337 1.45026,1.367782 0.97496,2.976452 l -1.04975,-0.02528 0.23213,1.070904 c -0.8311,0.208055 -1.88626,0.881998 -2.82739,-1.02495 -0.74404,1.272368 -1.24134,1.219776 -2.62155,1.293754 l 0.38019,-0.730962 -1.14932,0.07326 c -0.23062,-1.098182 -0.19843,-1.414587 0.48695,-2.216087 -0.60234,-0.432915 -0.51497,-0.901213 -0.43943,-1.592472 l 0.39043,-0.408523 0.49339,-0.389259 c 0.51503,-0.832356 0.12572,-0.821569 0.9379,-0.580499 -0.39389,-1.506775 0.47454,-1.507071 0.98056,-2.309124 l 0.33589,0.572773 -0.32963,-1.368545 c 1.19635,0.165839 1.93753,0.905946 1.47347,2.351667 z"
               id="path1830-0-4"
               sodipodi:nodetypes="cccccccccccccccccccccc" />
            <path
               style="display:inline;fill:#001aad;fill-opacity:1;stroke:none;stroke-width:0.789181;stroke-linecap:round;stroke-linejoin:round;stroke-miterlimit:4;stroke-dasharray:none;stroke-dashoffset:19.9937;stroke-opacity:1;paint-order:stroke fill markers"
               d="m 147.51443,16.579305 c 0.0109,3.120652 -2.34441,4.263947 -4.5712,2.229835 -0.12989,-0.118648 -0.033,-0.38256 0.0344,-0.509821 1.25353,-2.365788 1.26853,-2.348298 3.69623,-2.337337 0.32794,0.06428 0.75847,0.348216 0.84054,0.617323 z"
               id="path2403-3"
               sodipodi:nodetypes="cssccc" />
            <path
               style="display:inline;fill:#001aad;fill-opacity:1;stroke:none;stroke-width:14.2105;stroke-linecap:round;stroke-linejoin:round;stroke-miterlimit:4;stroke-dasharray:none;stroke-dashoffset:19.9937;stroke-opacity:1;paint-order:stroke fill markers"
               d="m 61.478151,48.836823 c -3.02363,-0.568372 -2.693179,-0.251606 -3.204587,-3.115583 l 1.602294,0.17803 -0.08896,-1.958353 c 2.361292,0.171905 3.032597,-0.572031 4.005748,1.513279 0.637598,-1.143464 1.178834,-2.575971 3.560661,-2.670499 l 0.445074,1.424264 1.335249,-0.801147 c 0.659297,1.023514 2.047836,2.135942 -0.08896,4.272796 2.051886,0.420606 2.208074,1.113868 2.937543,2.937546 l -1.15722,-0.178035 0.623132,1.513284 c -1.372652,0.811552 -1.81315,0.91264 -3.204588,0.356065 -0.3077,1.008199 -1.171657,2.100609 -2.13641,2.314432 l -0.534103,-1.335251 -0.979176,1.186888 c -1.355215,-0.313235 -0.932878,-1.467464 -0.97912,-2.670494 -1.848007,1.217759 -2.517394,1.205111 -3.827719,0.890166 l 0.890176,-1.86935 -1.691308,1.068197 c -0.322821,-1.685702 0.334928,-3.020936 2.492327,-3.056235 z"
               id="path1830-4"
               sodipodi:nodetypes="ccccccccccccccccccccc" />
          </g>
        </g>
      </g>
    </g>
  </g>
</svg>
